<svg id="ai27-logo" xmlns="http://www.w3.org/2000/svg" width="155.815" height="61.827" viewBox="0 0 155.815 61.827">
  <g id="Grupo_19054" data-name="Grupo 19054">
    <g id="Grupo_19052" data-name="Grupo 19052">
      <g id="Grupo_19050" data-name="Grupo 19050" transform="translate(79.628)">
        <path id="Trazado_7623" data-name="Trazado 7623" d="M949.557,476.187H915.114v-9.553l7.409-6.044,9.943-7.993c5.654-4.419,6.239-6.888,6.239-9.683,0-4.679-3.769-6.044-7.019-6.044-5.589,0-7.408,6.824-7.6,7.474l-10.008-2.469c1.365-4.809,6.694-13.972,17.612-13.972,11.828,0,17.352,7.8,17.352,15.012,0,6.824-4.744,12.218-10.463,16.962-2.4,1.885-5.849,4.679-9.423,7.409h20.406Z" transform="translate(-914.074 -427.901)" fill="#fff"/>
        <path id="Trazado_7624" data-name="Trazado 7624" d="M1143.831,437.4l-22.692,38.787h-12.005L1132.617,437h-25v-9.1h36.214Z" transform="translate(-1067.644 -427.901)" fill="#fff"/>
      </g>
      <g id="Grupo_19051" data-name="Grupo 19051">
        <path id="Trazado_7625" data-name="Trazado 7625" d="M808.6,476.187V427.9h10.436v48.286Z" transform="translate(-750.757 -427.901)" fill="#fff"/>
        <path id="Trazado_7626" data-name="Trazado 7626" d="M539.67,476.187H528.527L549.757,427.9h10.507l19.623,48.286H568.808l-14.444-33.229Z" transform="translate(-528.527 -427.901)" fill="#fff"/>
      </g>
    </g>
    <g id="Grupo_19053" data-name="Grupo 19053" transform="translate(11.126 55.612)">
      <path id="Trazado_7627" data-name="Trazado 7627" d="M586.413,698.414a3.109,3.109,0,0,0-1.991-.517H582.4v5.992h.829v-1.821h1.212a3.161,3.161,0,0,0,1.962-.5,1.887,1.887,0,0,0,.621-1.567A1.961,1.961,0,0,0,586.413,698.414Zm-.592,2.555a1.7,1.7,0,0,1-1.266.368h-1.327v-2.708H584.4a2.383,2.383,0,0,1,1.314.285,1.119,1.119,0,0,1,.449,1A1.481,1.481,0,0,1,585.821,700.969Z" transform="translate(-582.398 -697.746)" fill="#fff"/>
      <path id="Trazado_7628" data-name="Trazado 7628" d="M615.306,701.637a1.692,1.692,0,0,0,1.264-1.832,1.738,1.738,0,0,0-.571-1.451,3.266,3.266,0,0,0-1.967-.457h-2.2v5.992h.829V701.8H614.2l1.484,2.088h1.062l-1.591-2.208Zm-1.23-.568h-1.416v-2.441H614.1a2.257,2.257,0,0,1,1.235.246,1.049,1.049,0,0,1,.376.925,1.214,1.214,0,0,1-.358.967A1.993,1.993,0,0,1,614.075,701.07Z" transform="translate(-605.751 -697.746)" fill="#fff"/>
      <path id="Trazado_7629" data-name="Trazado 7629" d="M643.983,701.241h2.977v-.714h-2.977v-1.863H647.3V697.9h-4.144v5.993H647.4v-.767h-3.422Z" transform="translate(-630.606 -697.746)" fill="#fff"/>
      <path id="Trazado_7630" data-name="Trazado 7630" d="M673.318,697.9h-2.023v5.992h1.952a3.616,3.616,0,0,0,2.59-.813,2.954,2.954,0,0,0,.838-2.214,2.805,2.805,0,0,0-.862-2.18A3.61,3.61,0,0,0,673.318,697.9Zm1.882,4.66a2.622,2.622,0,0,1-1.8.565h-1.274v-4.476h1.159c1.694,0,2.553.754,2.553,2.242A2.134,2.134,0,0,1,675.2,702.557Z" transform="translate(-652.935 -697.746)" fill="#fff"/>
      <rect id="Rectángulo_6940" data-name="Rectángulo 6940" width="0.829" height="5.993" transform="translate(25.31 0.151)" fill="#fff"/>
      <path id="Trazado_7631" data-name="Trazado 7631" d="M720.608,698.156a2.892,2.892,0,0,1,.791.54l.523-.572a3.027,3.027,0,0,0-2.264-.957,3.191,3.191,0,0,0-2.314.893,3.006,3.006,0,0,0-.913,2.232,2.976,2.976,0,0,0,.9,2.214,3.117,3.117,0,0,0,2.261.875,3,3,0,0,0,2.244-.981l-.528-.542a3.209,3.209,0,0,1-.767.529,2.309,2.309,0,0,1-.979.193,2.173,2.173,0,0,1-1.584-.668,2.262,2.262,0,0,1-.667-1.659,2.168,2.168,0,0,1,.674-1.635,2.323,2.323,0,0,1,1.657-.639A2.472,2.472,0,0,1,720.608,698.156Z" transform="translate(-688.749 -697.167)" fill="#fff"/>
      <path id="Trazado_7632" data-name="Trazado 7632" d="M749.082,703.89h.829v-5.252H751.8V697.9h-4.6v.741h1.884Z" transform="translate(-713.161 -697.746)" fill="#fff"/>
      <rect id="Rectángulo_6941" data-name="Rectángulo 6941" width="0.829" height="5.993" transform="translate(39.991 0.151)" fill="#fff"/>
      <path id="Trazado_7633" data-name="Trazado 7633" d="M786.6,697.9h-.937l2.409,5.993h1.025L791.5,697.9h-.937l-1.984,4.818Z" transform="translate(-743.68 -697.746)" fill="#fff"/>
      <path id="Trazado_7634" data-name="Trazado 7634" d="M820.4,701.241h2.977v-.714H820.4v-1.863h3.315V697.9h-4.144v5.993h4.251v-.767H820.4Z" transform="translate(-770.588 -697.746)" fill="#fff"/>
      <rect id="Rectángulo_6942" data-name="Rectángulo 6942" width="0.829" height="5.993" transform="translate(57.018 0.151)" fill="#fff"/>
      <path id="Trazado_7635" data-name="Trazado 7635" d="M871.9,697.9v5.993h.829v-4.743l3.683,4.743h.974V697.9h-.829v4.849L872.78,697.9Z" transform="translate(-812.104 -697.746)" fill="#fff"/>
      <path id="Trazado_7636" data-name="Trazado 7636" d="M906.912,703.89h.829v-5.252h1.884V697.9h-4.6v.741h1.884Z" transform="translate(-838.394 -697.746)" fill="#fff"/>
      <path id="Trazado_7637" data-name="Trazado 7637" d="M934.686,701.241h2.977v-.714h-2.977v-1.863H938V697.9h-4.144v5.993h4.251v-.767h-3.421Z" transform="translate(-861.269 -697.746)" fill="#fff"/>
      <path id="Trazado_7638" data-name="Trazado 7638" d="M962.827,697.9H962v5.993h3.664v-.776h-2.835Z" transform="translate(-883.598 -697.746)" fill="#fff"/>
      <path id="Trazado_7639" data-name="Trazado 7639" d="M987.18,697.9h-.829v5.993h3.664v-.776H987.18Z" transform="translate(-902.921 -697.746)" fill="#fff"/>
      <rect id="Rectángulo_6943" data-name="Rectángulo 6943" width="0.829" height="5.993" transform="translate(88.46 0.151)" fill="#fff"/>
      <path id="Trazado_7640" data-name="Trazado 7640" d="M1023.723,701.966a2.442,2.442,0,0,1,.018-3.349,2.323,2.323,0,0,1,1.658-.639,2.893,2.893,0,0,1,.892.126,2.222,2.222,0,0,1,.677.375l.435-.621a3.183,3.183,0,0,0-2.084-.691,3.064,3.064,0,0,0-2.212.893,3.005,3.005,0,0,0-.914,2.232,2.975,2.975,0,0,0,.9,2.214,3.077,3.077,0,0,0,2.229.875,3.151,3.151,0,0,0,2.406-.9v-1.972h-.829v1.657l-.051.032a2.806,2.806,0,0,1-1.539.4A2.207,2.207,0,0,1,1023.723,701.966Z" transform="translate(-931.361 -697.167)" fill="#fff"/>
      <path id="Trazado_7641" data-name="Trazado 7641" d="M1057.531,701.241h2.977v-.714h-2.977v-1.863h3.315V697.9H1056.7v5.993h4.251v-.767h-3.422Z" transform="translate(-958.743 -697.746)" fill="#fff"/>
      <path id="Trazado_7642" data-name="Trazado 7642" d="M1084.843,697.9v5.993h.829v-4.743l3.683,4.743h.974V697.9h-.829v4.849l-3.772-4.849Z" transform="translate(-981.072 -697.746)" fill="#fff"/>
      <path id="Trazado_7643" data-name="Trazado 7643" d="M1123.056,698.156a2.888,2.888,0,0,1,.791.54l.523-.572a3.026,3.026,0,0,0-2.263-.957,3.191,3.191,0,0,0-2.314.893,3.184,3.184,0,0,0-.018,4.446,3.117,3.117,0,0,0,2.261.875,3,3,0,0,0,2.244-.981l-.528-.542a3.212,3.212,0,0,1-.767.529,2.31,2.31,0,0,1-.979.193,2.174,2.174,0,0,1-1.584-.668,2.262,2.262,0,0,1-.667-1.659,2.167,2.167,0,0,1,.674-1.635,2.323,2.323,0,0,1,1.657-.639A2.472,2.472,0,0,1,1123.056,698.156Z" transform="translate(-1008.078 -697.167)" fill="#fff"/>
      <path id="Trazado_7644" data-name="Trazado 7644" d="M1153.314,701.241h2.977v-.714h-2.977v-1.863h3.315V697.9h-4.144v5.993h4.251v-.767h-3.422Z" transform="translate(-1034.743 -697.746)" fill="#fff"/>
    </g>
  </g>
</svg>
