<?xml version="1.0" encoding="UTF-8"?>
<svg id="Capa_2" data-name="Capa 2" xmlns="http://www.w3.org/2000/svg" viewBox="0 0 6780.24 918.74">
  <defs>
    <style>
      .cls-1 {
        fill: #fff;
      }
    </style>
  </defs>
  <g id="Capa_1-2" data-name="Capa 1">
    <g>
      <g>
        <path class="cls-1" d="m2021.73,546.16v359.58h-169.28v-359.58c0-94.04-53.11-122.81-117.28-122.81-45.36,0-119.49,27.66-116.17,160.43v321.96h-164.85V297.22h164.85v54.21c40.94-40.93,108.43-65.27,162.64-65.27,175.92,0,240.09,101.79,240.09,260Z"/>
        <path class="cls-1" d="m2792.85,658.73v-359.58h167.06v359.58c0,92.94,55.32,121.7,118.38,121.7,46.47,0,120.6-27.66,116.17-159.32v-321.96h165.96v606.3h-165.96v-52c-39.83,40.93-98.47,65.27-162.64,65.27-174.81,0-238.98-102.89-238.98-260Z"/>
        <path class="cls-1" d="m3673.52,636.88v268.85h-164.85V297.22h164.85v80.77c61.96-81.87,164.85-92.94,208-91.83v161.53c-39.83-3.32-208,4.43-208,189.19Z"/>
        <path class="cls-1" d="m4419.23,844.61c-25.44,34.3-98.47,74.13-184.77,74.13-192.51,0-305.36-142.73-305.36-317.53s112.85-317.54,305.36-317.54c88.51,0,153.79,35.41,184.77,76.34v-63.06h163.75v608.52h-163.75v-60.85Zm-160.42-416c-105.11,0-167.07,73.02-167.07,172.6s65.28,171.49,167.07,171.49,167.07-65.28,167.07-171.49c0-100.68-64.17-172.6-167.07-172.6Z"/>
        <path class="cls-1" d="m5302.12,546.16v359.58h-169.28v-359.58c0-94.04-53.11-122.81-117.28-122.81-45.36,0-119.49,27.66-116.17,160.43v321.96h-164.85V297.22h164.85v54.21c40.94-40.93,108.43-65.27,162.64-65.27,175.91,0,240.09,101.79,240.09,260Z"/>
        <path class="cls-1" d="m5423.81,601.2c0-174.81,149.36-316.43,330.81-316.43,128.34,0,236.77,63.06,298.73,177.02l-149.36,58.64c-36.51-60.85-89.62-90.73-149.36-90.73-96.26,0-165.96,73.02-165.96,171.49s70.81,171.49,167.07,171.49c59.74,0,115.06-25.45,153.79-88.51l140.51,55.32c-58.64,119.49-154.89,179.23-294.3,179.23-181.45,0-331.92-142.73-331.92-317.54Z"/>
        <path class="cls-1" d="m6131.89,601.2c0-250.04,216.85-316.43,330.81-316.43,156,0,312,106.21,317.54,302.04,0,46.47-3.32,76.34-3.32,76.34h-480.17c19.91,99.57,132.77,110.64,165.96,110.64,91.83,0,137.19-49.79,156-70.81l128.34,74.13c-24.34,33.19-106.22,141.62-284.34,141.62-118.38,0-330.81-67.49-330.81-317.54Zm169.28-55.32h304.26c-6.64-55.32-60.85-116.17-143.83-116.17-95.15,0-153.79,54.21-160.43,116.17Z"/>
      </g>
      <g>
        <path class="cls-1" d="m953.87,902.04c-26.22,0-51.55,0-76.89,0-37.18,0-74.37-.58-111.53.32-12.53.31-18.34-3.81-23.28-15.25-83.96-194.25-168.4-388.29-252.75-582.37-2.77-6.38-5.67-12.7-8.63-19.31-6.18,4.65-7.29,11.38-9.86,17.18-85.89,194.06-171.9,388.06-257.12,582.41-6.1,13.9-13.34,17.5-27.44,17.32-56.05-.74-112.12-.31-168.18-.31H.62c-2.33-8.02,2.49-13.3,4.95-18.92C119.08,624.57,232.74,366.09,346.38,107.6c14-31.84,28.28-63.56,41.66-95.66C391.83,2.83,396.64-.09,406.47,0c56.06.52,112.12.23,168.18.26,15.43,0,15.46.06,21.35,14.55,65.91,162.18,131.82,324.36,197.71,486.55,51.47,126.69,102.94,253.38,154.31,380.12,2.39,5.89,6.19,11.43,5.85,20.56Z"/>
        <path class="cls-1" d="m1308.2,451.72c0,144.1.04,288.2-.05,432.3-.01,20.99,3.5,19.53-20.12,19.55-44.86.06-89.72.05-134.58,0-16.21-.02-16.31-.12-16.32-16.38-.03-150-.02-300.01-.02-450.01,0-137.6,0-275.21,0-412.81,0-4.13.48-8.33-.09-12.39-1.4-9.98,3.71-11.56,12.27-11.51,48.4.29,96.8.08,145.21.18,13.44.03,13.64.24,13.66,13.46.08,62.01.04,124.02.04,186.03,0,83.86,0,167.72,0,251.58Z"/>
      </g>
      <path class="cls-1" d="m2648.72,702.07c-4.9-37.31-21.32-71.89-47.47-100-26.2-28.16-59.5-46.96-96.33-54.39-24.38-4.91-49.21-9.68-73.22-14.3-21.59-4.15-43.92-8.44-65.84-12.82-4.29-.86-8.66-1.68-12.88-2.48-14.83-2.8-30.16-5.69-44.7-10.52-20.07-6.66-39.04-28.94-34.68-57.11,3.97-25.65,23.9-43.61,49.59-44.68,5.6-.23,11.26-.26,16.54-.26,42.7.03,85.41.08,128.12.12,40.35.04,80.71.08,121.06.11,12.81,0,14.04-.81,18.67-12.54,13.69-34.63,26.04-65.87,38.48-97.56,2.29-5.82,3.55-9.03,1.66-11.86-1.86-2.8-5.22-2.88-11.3-3.01-1.4-.03-2.8-.02-4.2-.02-.61,0-1.23,0-1.84,0h-158.57c-12.93,0-25.85,0-38.78-.02-33.01-.03-67.15-.05-100.73.1-17.54.08-30.9,1.19-43.33,3.62-107.31,20.94-158.04,120.78-143.5,201.26,13.03,72.11,65.7,128.9,134.17,144.66,17.69,4.07,36.54,8.05,56.03,11.82,42.5,8.23,88.21,17.02,134.55,25.53,12.98,2.38,24.9,9.36,33.57,19.65,9.28,11.01,13.91,24.57,13.41,39.22-1,29.11-22.16,51.21-52.65,55-5.02.62-10.32.93-16.19.93-76.97.05-155.23.04-230.91.04h-54.03c-1.05,0-2.09.02-3.14.03-2.15.04-4.18.07-6.19-.05-3.42-.2-5.98.56-7.82,2.34-1.9,1.84-2.79,4.58-2.7,8.38.15,6.64.12,13.42.08,19.98-.01,2.86-.03,5.71-.03,8.57,0,6.56,0,13.11,0,19.67.01,17.4.03,35.39-.06,53.08-.02,3.23-.04,7.66,3.01,10.39,1.58,1.41,3.64,2.11,6.28,2.11.64,0,1.32-.04,2.03-.12,1.35-.16,2.81-.11,4.35-.06.8.03,1.6.05,2.39.05h74.24c73.75-.01,150-.02,225.01.05,14.8.03,30.17-1.6,45.64-4.81,45.76-9.49,85.29-34.89,111.3-71.51,26.01-36.62,36.98-82.3,30.9-128.64Z"/>
    </g>
  </g>
</svg>