<svg xmlns="http://www.w3.org/2000/svg" width="69.099" height="29.052" viewBox="0 0 69.099 29.052">
  <g id="ais-logo" transform="translate(-12115.992 2733)">
    <path id="Vector" d="M23.557,0c-.118.3-.226.57-.334.843q-.886,2.235-1.769,4.47a.259.259,0,0,1-.288.2Q14.9,5.492,8.627,5.485a2.788,2.788,0,0,0-1.823.56A2.527,2.527,0,0,0,5.817,8.6a2.457,2.457,0,0,0,1.907,2.071c1.3.323,2.616.575,3.929.839,1.813.365,3.651.632,5.441,1.085a8.076,8.076,0,0,1,6.1,5.739,8.163,8.163,0,0,1-6.471,10.53,10.718,10.718,0,0,1-1.917.178c-4.836.014-9.67.007-14.506.007H.049V23.543H.286q7.135,0,14.27,0a2.979,2.979,0,0,0,2.042-.681,2.758,2.758,0,0,0,.948-2.924,2.7,2.7,0,0,0-2.2-2.1c-2.42-.487-4.85-.921-7.275-1.392A14.421,14.421,0,0,1,5.2,15.72,8.112,8.112,0,0,1,5.776.4a8.748,8.748,0,0,1,2.6-.4H23.557Z" transform="translate(12161.491 -2733)" fill="#fff"/>
    <path id="Vector-2" data-name="Vector" d="M30.931,28.994h-.2q-3.135,0-6.27,0a.258.258,0,0,1-.275-.188q-4.262-9.781-8.53-19.558c-.026-.06-.053-.119-.1-.21-.185.415-.357.8-.528,1.183q-2.221,5-4.438,10-1.9,4.3-3.807,8.594A.245.245,0,0,1,6.52,29Q3.359,28.991.2,29H0c.035-.086.058-.152.086-.217Q5.28,17.015,10.469,5.255,11.587,2.722,12.7.188a.269.269,0,0,1,.3-.188q2.962.009,5.923,0a.248.248,0,0,1,.277.184q3.7,9.1,7.418,18.193l4.246,10.415c.025.06.046.121.076.2Z" transform="translate(12115.992 -2732.974)" fill="#fff"/>
    <path id="Vector-3" data-name="Vector" d="M5.479,19.607H0V0H5.479Z" transform="translate(12150.524 -2723.567)" fill="#fff"/>
    <path id="Vector-4" data-name="Vector" d="M3.706,0A3.694,3.694,0,1,1,0,3.7,3.707,3.707,0,0,1,3.706,0Z" transform="translate(12149.556 -2732.984)" fill="#fff"/>
  </g>
</svg>
