<svg id="ais-logo" xmlns="http://www.w3.org/2000/svg" width="60.879" height="36.005" viewBox="0 0 60.879 36.005">
  <g id="Frame">
    <rect id="Frame-2" data-name="Frame" width="60.823" height="35.919" transform="translate(0.003)" fill="none"/>
    <path id="Vector" d="M20.755,0c-.1.261-.2.5-.295.743Q19.679,2.712,18.9,4.682a.228.228,0,0,1-.254.172Q13.124,4.839,7.6,4.832a2.456,2.456,0,0,0-1.606.494,2.226,2.226,0,0,0-.87,2.252A2.165,2.165,0,0,0,6.8,9.4c1.144.285,2.3.506,3.462.739,1.6.322,3.217.557,4.794.956a7.115,7.115,0,0,1,5.371,5.056,7.192,7.192,0,0,1-5.7,9.277,9.443,9.443,0,0,1-1.689.157c-4.261.013-8.52.006-12.781.006H.044V20.742H.252q6.286,0,12.572,0a2.625,2.625,0,0,0,1.8-.6,2.429,2.429,0,0,0,.836-2.576,2.381,2.381,0,0,0-1.939-1.852c-2.132-.429-4.273-.811-6.409-1.227a12.706,12.706,0,0,1-2.53-.638A7.147,7.147,0,0,1,5.089.351,7.707,7.707,0,0,1,7.377,0H20.755Z" transform="translate(40.086 0)" fill="#fff"/>
    <path id="Vector-2" data-name="Vector" d="M27.252,25.545h-.18q-2.762,0-5.524,0a.227.227,0,0,1-.243-.166Q17.55,16.765,13.789,8.152c-.023-.053-.047-.105-.084-.185-.163.366-.315.7-.465,1.042q-1.956,4.406-3.91,8.811Q7.652,21.6,5.976,25.392a.216.216,0,0,1-.232.158q-2.785-.008-5.571,0H0c.03-.076.051-.134.076-.191Q4.652,14.99,9.224,4.63,10.208,2.4,11.186.166A.237.237,0,0,1,11.446,0q2.61.008,5.218,0a.219.219,0,0,1,.244.162q3.263,8.016,6.535,16.029l3.741,9.176c.022.053.041.106.067.177Z" transform="translate(0 0.023)" fill="#425cc7"/>
    <path id="Vector-3" data-name="Vector" d="M4.827,17.274H0V0H4.827Z" transform="translate(30.424 8.311)" fill="#425cc7"/>
    <path id="Vector-4" data-name="Vector" d="M3.265,0A3.254,3.254,0,1,1,0,3.256,3.266,3.266,0,0,1,3.265,0Z" transform="translate(29.57 0.014)" fill="#425cc7"/>
    <path id="Vector-5" data-name="Vector" d="M0,.006A3.249,3.249,0,0,1,.4.011C.452.018.5.08.538.128q.947,1.261,1.891,2.524c.034.046.071.09.114.144.528-.705,1.045-1.4,1.563-2.09.141-.189.287-.372.419-.566A.267.267,0,0,1,4.8,0a2.607,2.607,0,0,0,.283,0v5.13H4.562V1.015L4.526,1,2.541,3.67C1.874,2.774,1.218,1.889.56,1.005l-.034.008V5.135H0V0Z" transform="translate(30.263 29.311)" fill="#fff"/>
    <path id="Vector-6" data-name="Vector" d="M0,.009C.041.005.077,0,.113,0H.48V2.145a.851.851,0,0,0,.081-.067,1.525,1.525,0,0,1,2.488.239,1.921,1.921,0,0,1-.66,2.727,1.5,1.5,0,0,1-1.78-.315L.486,4.606v.522H0V.006ZM2.861,3.24a1.324,1.324,0,0,0-.476-.947.993.993,0,0,0-1.27-.085,1.4,1.4,0,0,0,.014,2.35.988.988,0,0,0,1.232-.073,1.479,1.479,0,0,0,.5-1.243Z" transform="translate(40.891 29.318)" fill="#fff"/>
    <path id="Vector-7" data-name="Vector" d="M3.223.674,2.852,1A1.452,1.452,0,0,0,2.008.537,1.268,1.268,0,0,0,1,.741a.776.776,0,0,0,.1,1.338,5.427,5.427,0,0,0,.7.267c.281.1.568.189.843.3A1.151,1.151,0,0,1,3.4,3.706a1.3,1.3,0,0,1-.621,1.3,2.134,2.134,0,0,1-2.2-.022A4.6,4.6,0,0,1,0,4.546l.368-.418A.656.656,0,0,0,.45,4.26a1.734,1.734,0,0,0,1.728.453.878.878,0,0,0,.682-1,.737.737,0,0,0-.457-.6,5.752,5.752,0,0,0-.613-.23c-.287-.1-.579-.187-.861-.3A1.181,1.181,0,0,1,.135,1.5,1.3,1.3,0,0,1,.792.253,1.981,1.981,0,0,1,3.158.583a.761.761,0,0,1,.066.09Z" transform="translate(5.947 29.24)" fill="#fff"/>
    <path id="Vector-8" data-name="Vector" d="M2.829,2.641l.325.311a1.785,1.785,0,0,1-1.133.69A1.751,1.751,0,0,1,0,1.975,1.864,1.864,0,0,1,1.058.135,1.627,1.627,0,0,1,3.3,1.366a5.8,5.8,0,0,1,.037.658H.529a1.155,1.155,0,0,0,.663,1.05,1.342,1.342,0,0,0,1.637-.433Zm-.006-1.06A1.157,1.157,0,0,0,1.632.48c-.573.035-1.17.629-1.1,1.1H2.824Z" transform="translate(24.413 30.855)" fill="#fff"/>
    <path id="Vector-9" data-name="Vector" d="M.519,2.015a1.233,1.233,0,0,0,.763,1.093,1.366,1.366,0,0,0,1.563-.485c.105.1.211.205.312.306a1.789,1.789,0,0,1-1.627.727A1.814,1.814,0,0,1,.012,1.65,1.835,1.835,0,0,1,1.261.061,1.643,1.643,0,0,1,3.333,1.522c.009.116,0,.234,0,.351s-.053.16-.177.158c-.813-.009-1.626-.01-2.44-.013h-.2Zm0-.442H2.833A1.161,1.161,0,0,0,1.705.473a1.231,1.231,0,0,0-1.186,1.1Z" transform="translate(9.997 30.861)" fill="#fff"/>
    <path id="Vector-10" data-name="Vector" d="M0,1.854A1.8,1.8,0,0,1,1.349.049,1.765,1.765,0,0,1,3.514,1.641a1.788,1.788,0,0,1-.952,1.828A1.755,1.755,0,0,1,.017,2.088C.009,2,.005,1.918,0,1.854ZM1.609,3.191a1.273,1.273,0,0,0,.972-.323A1.392,1.392,0,0,0,3,1.556,1.271,1.271,0,0,0,1.515.5,1.33,1.33,0,0,0,.507,1.649a1.324,1.324,0,0,0,1.1,1.542Z" transform="translate(36.41 30.862)" fill="#fff"/>
    <path id="Vector-11" data-name="Vector" d="M.21,4.528l.179.042a.6.6,0,0,0,.72-.31,5.346,5.346,0,0,0,.272-.7A.286.286,0,0,0,1.346,3.4Q.708,1.792.069.19C.047.136.029.083,0,0A4,4,0,0,1,.466.011C.512.017.564.1.585.153q.49,1.242.973,2.485c.024.062.051.123.091.22.043-.106.074-.179.1-.251.321-.824.644-1.647.96-2.472A.17.17,0,0,1,2.908,0C3.03.01,3.153,0,3.3,0c-.024.066-.039.114-.058.162-.508,1.294-1.012,2.59-1.528,3.881a3.226,3.226,0,0,1-.352.66.922.922,0,0,1-1.063.308.153.153,0,0,1-.081-.108c-.01-.122,0-.244,0-.38Z" transform="translate(52.337 30.933)" fill="#fff"/>
    <path id="Vector-12" data-name="Vector" d="M2.519,0H3V3.5H2.522V3.075a.377.377,0,0,0-.067.041A1.367,1.367,0,0,1,.932,3.5,1.306,1.306,0,0,1,.018,2.25C-.017,1.507.01.761.01.005H.5V.186c0,.6,0,1.205,0,1.807a1.59,1.59,0,0,0,.048.41.959.959,0,0,0,.827.7A.982.982,0,0,0,2.394,2.5a1.859,1.859,0,0,0,.122-.636c.017-.56.005-1.119.005-1.679V0Z" transform="translate(17.966 30.943)" fill="#fff"/>
    <path id="Vector-13" data-name="Vector" d="M2.812,2.619l.34.314A1.721,1.721,0,0,1,.71,3.316,1.808,1.808,0,0,1,.023,1.555,1.736,1.736,0,0,1,1.147.112,1.713,1.713,0,0,1,3.11.69L2.767,1a3.142,3.142,0,0,0-.5-.391,1.218,1.218,0,0,0-1.744.955,1.447,1.447,0,0,0,.169,1,1.214,1.214,0,0,0,2.01.177C2.737,2.71,2.77,2.668,2.812,2.619Z" transform="translate(14.001 30.856)" fill="#fff"/>
    <path id="Vector-14" data-name="Vector" d="M2.073,4.187a1.882,1.882,0,0,0,0,.27c.027.17-.056.233-.21.268A.927.927,0,0,1,.638,3.774c-.009-.651,0-1.3,0-1.952V1.636H0V1.165H.239c.356,0,.428-.075.429-.434,0-.229,0-.458,0-.687A.217.217,0,0,1,.682,0h.455V1.163h.742v.463H1.147c0,.075-.01.13-.01.187V3.637c0,.576.235.751.79.591l.145-.042Z" transform="translate(49.858 29.772)" fill="#fff"/>
    <path id="Vector-15" data-name="Vector" d="M.486,3.632H0V.128H.477v.4a3.988,3.988,0,0,1,.589-.37A4.209,4.209,0,0,1,1.766,0V.548c-.066,0-.128,0-.19,0A1.075,1.075,0,0,0,.489,1.637c-.009.6,0,1.2,0,1.805v.189Z" transform="translate(22.191 30.82)" fill="#fff"/>
    <path id="Vector-16" data-name="Vector" d="M.465,5.121H0V0H.465Z" transform="translate(46.87 29.329)" fill="#fff"/>
    <path id="Vector-17" data-name="Vector" d="M.48,3.5H0V0H.48Z" transform="translate(45.17 30.952)" fill="#fff"/>
    <path id="Vector-18" data-name="Vector" d="M.47,3.5H0V0H.47Z" transform="translate(48.562 30.949)" fill="#fff"/>
    <path id="Vector-19" data-name="Vector" d="M.318,0A.306.306,0,0,1,.64.319a.311.311,0,0,1-.312.33A.321.321,0,0,1,0,.329.318.318,0,0,1,.318,0Z" transform="translate(48.472 29.433)" fill="#fff"/>
    <path id="Vector-20" data-name="Vector" d="M.31.648A.31.31,0,0,1,0,.317.308.308,0,0,1,.325,0,.318.318,0,0,1,.64.332.322.322,0,0,1,.31.65Z" transform="translate(45.092 29.433)" fill="#fff"/>
  </g>
</svg>
