<svg xmlns="http://www.w3.org/2000/svg" xmlns:xlink="http://www.w3.org/1999/xlink" width="116.612" height="98.59" viewBox="0 0 116.612 98.59">
  <defs>
    <clipPath id="clip-path">
      <rect id="Rect치ngulo_7221" data-name="Rect치ngulo 7221" width="116.612" height="98.59" rx="14" transform="translate(0 0)" fill="#002f87"/>
    </clipPath>
    <clipPath id="clip-path-2">
      <rect id="Rect치ngulo_7218" data-name="Rect치ngulo 7218" width="109.425" height="109.498" fill="#002f87"/>
    </clipPath>
  </defs>
  <g id="card-img1" clip-path="url(#clip-path)" style="mix-blend-mode: color-burn;isolation: isolate">
    <g id="Grupo_19489" data-name="Grupo 19489" transform="translate(8.899 20.909)" opacity="0.42" clip-path="url(#clip-path-2)">
      <path id="Trazado_7897" data-name="Trazado 7897" d="M86.335,1150.53l-.946-.473a54.722,54.722,0,0,0,4.048,6.667,5.893,5.893,0,0,1-.343-1.92,4.635,4.635,0,0,0-2.758-4.274" transform="translate(-79.471 -1070.348)" fill="#002f87"/>
      <path id="Trazado_7898" data-name="Trazado 7898" d="M166.971,1277.292c-.2-.266-.409-.524-.624-.778.205.262.414.52.624.778" transform="translate(-154.818 -1188.041)" fill="#002f87"/>
      <path id="Trazado_7899" data-name="Trazado 7899" d="M1009.3,1316.57a7.179,7.179,0,0,0,1.08-.986,1.948,1.948,0,0,0-.249-2.646c-.681-.6-1.275-.549-2.141.253a10.869,10.869,0,0,0-1.64,1.808,5.068,5.068,0,0,1-5.618,2.252c-1.2-.232-2.411-.41-3.594-.7a3.055,3.055,0,0,0-2.987.889c-2.074,1.84-3.256,4.256-4.5,6.635a3.3,3.3,0,0,0-.135,2.621,5.923,5.923,0,0,1,.281,2.452q1.7-.461,3.357-1.027c.012-.317.016-.636,0-.957a10.973,10.973,0,0,1,.312-2.666c.639-3.174,2.406-4.571,5.663-4.544.326,0,.653,0,.979.015,2.225.085,3.484,1.128,3.816,3.089q1.331-.813,2.61-1.7c-.091-1.882.79-3.247,2.769-4.786" transform="translate(-920.738 -1221.563)" fill="#002f87"/>
      <path id="Trazado_7900" data-name="Trazado 7900" d="M886.026,1515.751a2.09,2.09,0,0,0-2.213.124,3.81,3.81,0,0,0-1.841,2.206q-.183.748-.384,1.493,2.342-.274,4.623-.739a3.607,3.607,0,0,0,.306-1.308c.018-.636.2-1.386-.491-1.776" transform="translate(-820.487 -1410.454)" fill="#002f87"/>
      <path id="Trazado_7901" data-name="Trazado 7901" d="M1094.906,1459.782a2.562,2.562,0,0,0-2.747.847,3.935,3.935,0,0,0-.718,2.42c0,.258-.016.514-.03.77q2.354-.978,4.593-2.164a1.85,1.85,0,0,0-1.1-1.873" transform="translate(-1015.766 -1358.486)" fill="#002f87"/>
      <path id="Trazado_7902" data-name="Trazado 7902" d="M1150.851,212.574a43.045,43.045,0,0,0-4.011,2.343c-1.981,1.435-3.415,3.124-3.018,5.823a7.365,7.365,0,0,1-.942,4.48,7.441,7.441,0,0,0-.6,1.856c-.138.637-.114,1.3.495,1.63a1.545,1.545,0,0,0,1.818-.26,5.926,5.926,0,0,0,1.577-2.15,3.793,3.793,0,0,1,1.493-2.038c2.48-1.306,4.923-2.746,7.86-2.759a2.93,2.93,0,0,0,2.23-.815,52.129,52.129,0,0,0,3.8-4.2q-1.04-1.388-2.167-2.7a9.954,9.954,0,0,1-5.472,4.45,10.969,10.969,0,0,0-4.491,2.381,1.685,1.685,0,0,1-.976.478c-.76.089-1.486.067-1.907-.73a1.755,1.755,0,0,1,.439-2.114,3.3,3.3,0,0,1,.808-.541c1.436-.681,2.848-1.432,4.332-1.988a9.923,9.923,0,0,0,5.161-4.27q-1.184-1.238-2.445-2.4c-.047.059-.091.12-.138.18a13.156,13.156,0,0,1-3.842,3.35" transform="translate(-1063.043 -194.555)" fill="#002f87"/>
      <path id="Trazado_7903" data-name="Trazado 7903" d="M705.476,153.2a28.6,28.6,0,0,0-6.034,5.327,13.46,13.46,0,0,1-3.665,2.993,11.213,11.213,0,0,0-5.286,6.176,39.094,39.094,0,0,1-1.556,3.853,6.3,6.3,0,0,1-3.842,3.538c-.89.29-1.768.618-2.669.881a14.266,14.266,0,0,0-3.685,1.612,2.877,2.877,0,0,0-1.419,2.892,5.219,5.219,0,0,1-1.766,4.608c-.459.4-.879.851-1.312,1.283a1.946,1.946,0,0,0-.649,1.407c.017,1.909-.052,3.826.1,5.724a19.491,19.491,0,0,1-.7,7.492,36.509,36.509,0,0,1-2.551,6.082,8.454,8.454,0,0,0-.914,2.773,2,2,0,0,0,.921,2.1,1.821,1.821,0,0,0,2.185-.593,5.277,5.277,0,0,0,1.122-1.877c.327-1.008.646-2.019.963-3.03.645-2.058.973-4.225,2-6.153a5.507,5.507,0,0,0,.485-4.018,12.637,12.637,0,0,1,.727-8.027,74.392,74.392,0,0,1,4.845-9.6,1.857,1.857,0,0,1,2.6-.824,1.8,1.8,0,0,1,.241,2.711c-1.865,1.942-2.717,4.432-3.889,6.748a16.856,16.856,0,0,0-1.774,7.917,1.781,1.781,0,0,0,1.1,1.871,2.3,2.3,0,0,0,2.436-.726,2.544,2.544,0,0,0,.547-1.705c.032-.977-.039-1.952.069-2.932.275-2.508,1.5-4.64,2.655-6.789a17.972,17.972,0,0,0,1.92-5.126,11.048,11.048,0,0,1,2.373-5.293,10.325,10.325,0,0,0,1.827-3.3c.676-1.879,1.365-3.754,2.037-5.635a2.937,2.937,0,0,1,.672-1.148,1.469,1.469,0,0,1,1.667-.421,1.494,1.494,0,0,1,1.051,1.488,2.623,2.623,0,0,1-.5,1.6,11.16,11.16,0,0,0-1.6,3.812,13.2,13.2,0,0,1-2.53,5.248,10.558,10.558,0,0,0-2.034,4.137,33.925,33.925,0,0,1-2.956,7.489,11.073,11.073,0,0,0-1.431,5.989,8.554,8.554,0,0,1-.511,3.367A3.876,3.876,0,0,1,682.7,199.8c-2.31-.328-3,.092-3.635,2.347-.511,1.8-.993,3.617-1.423,5.442a10.917,10.917,0,0,1-3.585,6.372,3.97,3.97,0,0,0-1.244,2.7c-.461,2.878.381,5.766-.165,8.649a1.784,1.784,0,0,0,1.663,1.929c1.134.173,1.629-.126,2.008-1.277a6.89,6.89,0,0,0,0-5.467,4.236,4.236,0,0,1,.5-4.4,10.886,10.886,0,0,1,1.293-1.623,10.243,10.243,0,0,0,2.7-4.987c.416-1.869.811-3.743,1.219-5.613a3.489,3.489,0,0,1,.64-1.568,1.5,1.5,0,0,1,2.661.314,2.392,2.392,0,0,1-.064,2.128,14.216,14.216,0,0,0-1.081,3.745,12.834,12.834,0,0,1-4.084,8.255,3.518,3.518,0,0,0-.984,1.805c-.365,1.377.4,2.271,1.823,2.08a3.852,3.852,0,0,0,2.755-1.864,35.61,35.61,0,0,0,3.119-5.943c1.059-2.69,1.047-5.585,1.344-8.414a13.613,13.613,0,0,1,1.063-4.739,13.275,13.275,0,0,0,1.626-5.711,14.164,14.164,0,0,1,1.243-5.57c.887-2.017,1.682-4.066,2.415-6.143a15.977,15.977,0,0,1,3.6-6.182,4.055,4.055,0,0,0,1.331-3.516,5.083,5.083,0,0,1,.383-2.637,13.893,13.893,0,0,0,1.067-6.452,4.8,4.8,0,0,1,1.217-3.369,18.746,18.746,0,0,1,4.92-4.161c1.527-.941,3.251-1.686,4.411-3.047q.562-.659,1.127-1.317-1.325-1.092-2.721-2.1a26.044,26.044,0,0,1-4.374,3.733" transform="translate(-623.106 -139.104)" fill="#002f87"/>
      <path id="Trazado_7904" data-name="Trazado 7904" d="M1575.275,789.428c.149-1.644.229-3.308.229-4.992,0-.133,0-.266-.005-.4,0,.043-.006.085-.012.129a31.807,31.807,0,0,0-.212,5.262" transform="translate(-1466.079 -729.697)" fill="#002f87"/>
      <path id="Trazado_7905" data-name="Trazado 7905" d="M1430.722,701.167a7.935,7.935,0,0,0-3.252,6.655,36.914,36.914,0,0,1-.214,5.492,7.435,7.435,0,0,1-1.257,3.534,8.515,8.515,0,0,0-1.713,6.083,13.874,13.874,0,0,1-.816,5.769,7.765,7.765,0,0,0-.193,4.461,17.854,17.854,0,0,1,.312,5.529,54.876,54.876,0,0,0,3.118-4.867,4.163,4.163,0,0,1-.032-2.743,21.174,21.174,0,0,0,.709-7.867,5.581,5.581,0,0,1,2.08-4.969,3.008,3.008,0,0,0,1.135-2.69c-.149-3.05.194-6.109-.183-9.16a1.832,1.832,0,0,1,1-1.948,1.466,1.466,0,0,1,1.707.216,1.851,1.851,0,0,1,.7,1.241q-.038-2.371-.27-4.692c-.113-.081-.227-.161-.344-.239a1.965,1.965,0,0,0-2.486.2" transform="translate(-1324.409 -652.057)" fill="#002f87"/>
      <path id="Trazado_7906" data-name="Trazado 7906" d="M1101.149,441.418a6.288,6.288,0,0,0,.2,4.174,4.046,4.046,0,0,1-.974,4.615c-.788.768-1.55,1.564-2.353,2.317a5.123,5.123,0,0,0-1.6,3.214c-.363,2.866-.64,5.744-1.2,8.583-.681,3.428-2.058,6.362-5.5,7.859a7.557,7.557,0,0,0-4.132,4.132,5.631,5.631,0,0,1-4.229,3.678,2.863,2.863,0,0,0-2.222,2.193,16.773,16.773,0,0,1-2.727,5.3,20.766,20.766,0,0,0-2.9,5.085c-.945,2.47-.22,4.36,2.419,4.717.766.1,1.524.27,2.284.413a3.886,3.886,0,0,0,4.281-1.632,7.319,7.319,0,0,1,2.7-2.421,3.762,3.762,0,0,0,1.941-2.531c.391-1.455.9-2.878,1.345-4.318a2.919,2.919,0,0,1,.962-1.525,1.525,1.525,0,0,1,1.923-.138,1.635,1.635,0,0,1,.793,1.779,4.353,4.353,0,0,1-.6,1.462,13.126,13.126,0,0,0-1.586,3.954c-.419,1.76.871,4.47,2.576,5.072.149.053.3.1.451.152q.944-.988,1.84-2.023a1.826,1.826,0,0,1-.9-1.363,2.546,2.546,0,0,1,.2-1.558,9.753,9.753,0,0,0,.378-6.7,8.268,8.268,0,0,1,.457-5.481,9.768,9.768,0,0,0,.638-4.8,9.889,9.889,0,0,1,1.739-6.822c1.323-1.876,1.38-4.143,1.429-6.347a19.118,19.118,0,0,1,1-6.365,6.785,6.785,0,0,1,2.9-3.677,3.89,3.89,0,0,0,2.219-4.425c-.422-2.278.007-4.551.015-6.826,0-.017,0-.035,0-.052a54.481,54.481,0,0,0-2.568-5.963,6.538,6.538,0,0,0-.762,3.139,11.108,11.108,0,0,1-.434,3.137M1092.2,474.1a1.635,1.635,0,0,1,1.044,1.572,4.44,4.44,0,0,1-.146.666c-.14.381-.346.738-.476,1.121a11.726,11.726,0,0,1-5.951,6.78,5.569,5.569,0,0,0-2.564,3.453,9.873,9.873,0,0,1-2.647,4.465,11.385,11.385,0,0,0-1.278,1.633,3.323,3.323,0,0,1-1.086.966,1.655,1.655,0,0,1-2.223-.205,1.974,1.974,0,0,1,.032-2.377,3.652,3.652,0,0,1,.788-.763,8.349,8.349,0,0,0,3.344-4.538,8.9,8.9,0,0,1,4.367-5.351,7.931,7.931,0,0,0,4.366-5.848,2.318,2.318,0,0,1,.63-1.169,1.619,1.619,0,0,1,1.8-.4" transform="translate(-998.737 -404.983)" fill="#002f87"/>
      <path id="Trazado_7907" data-name="Trazado 7907" d="M47.582,441.34a16.811,16.811,0,0,1,3.739,3.31,24.453,24.453,0,0,1,3.273,6.4,6.207,6.207,0,0,1,.231,3.613,3.812,3.812,0,0,0,.665,3.243,31.139,31.139,0,0,1,2.957,5.482,12.54,12.54,0,0,1,1.171,5.577c-.032,1.672,0,3.344-.037,5.016a7.014,7.014,0,0,0,.828,3.533c.961,1.795,2.048,3.519,2.955,5.348a4.263,4.263,0,0,0,1.746,1.674,12.425,12.425,0,0,1,1.236.79c2.436,1.85,2.66,4.393.6,6.641a14.034,14.034,0,0,1-3.389,2.786,3.7,3.7,0,0,0-2.019,3.106q1.575,1.143,3.232,2.175c.137-.276.268-.556.385-.846a10.6,10.6,0,0,1,2.741-3.858,6.608,6.608,0,0,0,1.007-1.065c2.056-2.978,5.043-3.669,8.393-3.408a3.743,3.743,0,0,1,3.746,3.4c.388,2.336.18,3.945-2,5.138-.858.469-1.765.849-2.618,1.327a4.984,4.984,0,0,0-2.885,3.73q1.731.684,3.519,1.251a4.878,4.878,0,0,1,3.374-3.6,11.626,11.626,0,0,1,1.413-.39,2.615,2.615,0,0,0,2.054-1.883,16.244,16.244,0,0,1,1.027-2.484,2.077,2.077,0,0,0-.436-2.671,3.943,3.943,0,0,1-.986-1.384,1.7,1.7,0,0,1,.551-2.071,1.585,1.585,0,0,1,2.122.153,4.49,4.49,0,0,1,1.11,1.736,2.366,2.366,0,0,0,1.888,1.563,5.694,5.694,0,0,1,3.953,2.194,2.2,2.2,0,0,0,2.53.75,11.317,11.317,0,0,0,5.166-2.9c1.852-2,1.679-3.629-.569-5.161a6.008,6.008,0,0,1-1.74-1.516,2.148,2.148,0,0,1,.362-3.135c1-.593,2.208-.03,2.82,1.318.118.26.212.53.315.8a2.932,2.932,0,0,0,.748,1.1,1.464,1.464,0,0,0,2.258-.041,1.79,1.79,0,0,0,.154-2.355,4.4,4.4,0,0,1,.223-4.851c.383-.577.737-1.177,1.166-1.718,2.413-3.044,3.945-6.366,3.379-10.378a5.286,5.286,0,0,1,0-.856,16.966,16.966,0,0,1,2.795-9.233,4.349,4.349,0,0,0,.711-3.811,5.35,5.35,0,0,1,.081-3.481c1.085-2.77,2.158-5.544,3.3-8.292a6.709,6.709,0,0,1,4.412-3.945,9.754,9.754,0,0,0,5.319-3.892,7.55,7.55,0,0,1,3.934-2.956,4.057,4.057,0,0,0,1.844-1.156,1.666,1.666,0,0,0,.461-1.9,1.422,1.422,0,0,0-1.778-.726c-2.71.7-5.437,1.491-6.8,4.265a5.425,5.425,0,0,1-5.5,3.272,2.116,2.116,0,0,0-1.812.855,21.715,21.715,0,0,0-3.447,5.457q-1.217,3.2-2.5,6.374a12.9,12.9,0,0,0-.98,4.013,15.474,15.474,0,0,1-1.436,6.506,12.671,12.671,0,0,0-1.52,5.493c-.069,1.543-.283,3.079-.412,4.62a12.567,12.567,0,0,1-1.268,4.937c-.9,1.693-1.845,3.361-2.68,5.083a5.617,5.617,0,0,1-5.118,3.378,2.1,2.1,0,0,0-2.07,1.736,17.124,17.124,0,0,1-.842,2.42c-.77,1.727-.287,2.877,1.478,3.608a5.02,5.02,0,0,1,1.509.788,1.774,1.774,0,0,1-1.73,3.052,3.251,3.251,0,0,1-1.55-.946,18.328,18.328,0,0,0-5.844-4.318,4.349,4.349,0,0,0-3.834-.35,4.057,4.057,0,0,1-4.262-.578,3.94,3.94,0,0,0-3.478-.6c-.876.19-1.745.429-2.631.554A3.274,3.274,0,0,1,70.3,485.61a4.718,4.718,0,0,1-.2-.706,4.077,4.077,0,0,0-2.189-2.925,5.8,5.8,0,0,1-2.045-1.711,18.54,18.54,0,0,1-2.687-6.123,32.943,32.943,0,0,1-.209-6.83,11.717,11.717,0,0,0-1.614-5.936,19.384,19.384,0,0,1-2.719-6.772,37.481,37.481,0,0,0-2.081-7.525c-.7-1.922-1.436-3.835-3.082-5.192-.786-.648-1.6-1.258-2.423-1.862a23.2,23.2,0,0,1-7.208-7.693,5.309,5.309,0,0,0-.406-.642q-.835,1.92-1.526,3.913a19.571,19.571,0,0,0,5.676,5.734" transform="translate(-39.002 -398.773)" fill="#002f87"/>
      <path id="Trazado_7908" data-name="Trazado 7908" d="M728.9,15.915a83.719,83.719,0,0,1-5.578,6.318,6.983,6.983,0,0,1-2.259,1.64,3.346,3.346,0,0,0-2.153,2.879c-.093.768-.208,1.536-.24,2.307-.044,1.089.559,1.641,1.651,1.648a2.308,2.308,0,0,0,2.275-1.865,12.237,12.237,0,0,1,3.218-4.834,36.206,36.206,0,0,0,5.359-5.85,9.657,9.657,0,0,1,4.947-3.809,9.83,9.83,0,0,0,4.793-3.663q-1.641-.549-3.329-1l-.143.317a8.275,8.275,0,0,1-.643,1.313,1.568,1.568,0,0,1-2.136.577,1.637,1.637,0,0,1-.737-2.191,6.4,6.4,0,0,1,.419-.77q-1.315-.264-2.651-.464a25.311,25.311,0,0,0-.677,2.826,9.969,9.969,0,0,1-2.117,4.617" transform="translate(-668.855 -7.886)" fill="#002f87"/>
      <path id="Trazado_7909" data-name="Trazado 7909" d="M615.59,60.848a12.784,12.784,0,0,0-4.975,3.856,31.838,31.838,0,0,1-3.844,4.261,19.412,19.412,0,0,0-4.7,6.484c-1.056,2.317-2.331,2.977-4.8,2.519-3.029-.562-5.294.848-7.318,2.755-.817.77-1.5,1.71-2.321,2.5a2.2,2.2,0,0,0-.768,1.73,5.586,5.586,0,0,0,2.105,4.243,1.48,1.48,0,0,0,1.709.27,1.677,1.677,0,0,0,.906-1.733c-.048-.564-.229-1.116-.33-1.677a3.166,3.166,0,0,1,1.616-3.636,7.564,7.564,0,0,1,2.157-.837,18.269,18.269,0,0,1,4.263-.207,5.688,5.688,0,0,0,5.246-3.192c.306-.575.573-1.172.836-1.768a18.343,18.343,0,0,1,2.775-4.293c1.83-2.207,4.126-3.936,6.059-6.033A10.135,10.135,0,0,1,616,64.607a48.706,48.706,0,0,0,8.483-7.07q-1.607-.77-3.271-1.435l-.065.083a14.509,14.509,0,0,1-5.553,4.663" transform="translate(-546.194 -52.213)" fill="#002f87"/>
      <path id="Trazado_7910" data-name="Trazado 7910" d="M418.523,1375.124a5.647,5.647,0,0,0,2.316-1.32,1.6,1.6,0,0,0,.377-1.7,1.452,1.452,0,0,0-1.361-1.056,4.615,4.615,0,0,0-3.3.6,15.845,15.845,0,0,0-5.5,6.261q-.2.451-.408.894,1.5.818,3.052,1.541a7.265,7.265,0,0,1,.93-2.03,7.571,7.571,0,0,1,3.894-3.2" transform="translate(-382.186 -1275.977)" fill="#002f87"/>
      <path id="Trazado_7911" data-name="Trazado 7911" d="M222.323,224.862c1.072,1.064,2.341,1.929,3.3,3.083,1.18,1.415,2.523,1.525,4.159,1.043A4.838,4.838,0,0,1,236.2,232.4a6.427,6.427,0,0,0,1.985,3.153,11.94,11.94,0,0,1,3.306,4.924,10.772,10.772,0,0,0,1.782,3.191,10.954,10.954,0,0,1,2.74,8.707,9.495,9.495,0,0,0-.01,1.223,12.76,12.76,0,0,1-.921,4.767,27.166,27.166,0,0,1-2.679,4.653,6.674,6.674,0,0,0-.783,4.479,2.276,2.276,0,0,0,1.694,1.88c1.147.18,2.025-.648,2.076-2.145a9.943,9.943,0,0,1,1.348-4.642A28.11,28.11,0,0,0,248,260.074a12.931,12.931,0,0,0,1.324-5.052c.033-3.017-.007-6.035.012-9.052a2.268,2.268,0,0,0-1.136-2.158,7.341,7.341,0,0,1-3.659-5.364,4.49,4.49,0,0,0-1.914-2.868,6.247,6.247,0,0,1-2.885-4.745,3.257,3.257,0,0,0-2.413-3.029,8.907,8.907,0,0,1-5.155-4.782,53.666,53.666,0,0,1-2.683-5.893,4.127,4.127,0,0,0-1.6-2.253,2.051,2.051,0,0,0-2.3-.193c-.794.464-.677,1.234-.6,1.963a4.646,4.646,0,0,0,.5,1.5,15.725,15.725,0,0,0,1.77,2.78,8.991,8.991,0,0,0,2.034,2.095,2.731,2.731,0,0,1,.727.814,1.644,1.644,0,0,1-.264,2.214,1.73,1.73,0,0,1-2.242-.1c-1-.865-1.515-2.117-2.419-3.061-2.03-2.121-3.292-4.529-2.957-7.588a2.507,2.507,0,0,0-.93-2.046q-.984-.967-1.947-1.954-1.2,1.119-2.34,2.306a12.188,12.188,0,0,1,2.194,5.193,10.892,10.892,0,0,0,3.209,6.056" transform="translate(-201.885 -196.661)" fill="#002f87"/>
      <path id="Trazado_7912" data-name="Trazado 7912" d="M90.686,381.972c1.6,1.327,3.276,2.554,4.9,3.847a8.282,8.282,0,0,1,2.865,3.275A69.975,69.975,0,0,1,102,399.622a21.712,21.712,0,0,0,2.653,7.053,10.762,10.762,0,0,1,1.756,6.5,35.488,35.488,0,0,0,0,4.767,11.528,11.528,0,0,0,3.114,7.632c.875.875,1.583,1.051,2.264.635a2.334,2.334,0,0,0,.894-2.79,7.2,7.2,0,0,0-1.338-2.03,8.426,8.426,0,0,1-1.66-4.258,31.312,31.312,0,0,1,.236-6.81c.1-1.2.21-2.371-.865-3.259a7.5,7.5,0,0,1-2.529-4.876,21.266,21.266,0,0,0-1.5-5.149,50.144,50.144,0,0,1-3.688-10.726,2.546,2.546,0,0,0-1.806-1.986,8.878,8.878,0,0,1-2.814-1.449,33.23,33.23,0,0,1-7.212-7.584,10.475,10.475,0,0,1-1.848-4.439q-1.243,1.983-2.32,4.074a6.771,6.771,0,0,1,1,1.346,19.884,19.884,0,0,0,4.359,5.7" transform="translate(-79.415 -345.149)" fill="#002f87"/>
      <path id="Trazado_7913" data-name="Trazado 7913" d="M1133.976,356.755a3.374,3.374,0,0,0-1.121,3.505c.5,2.276-.111,3.391-2.148,4.523-.32.178-.66.32-.993.474a9.019,9.019,0,0,0-3.9,3.04,9.434,9.434,0,0,1-3.634,3.194c-.692.346-1.4.655-2.124.939a6.827,6.827,0,0,0-4.013,4.185c-.689,1.83-1.3,3.688-2.118,5.471a5.419,5.419,0,0,0-.544,2.368c.036,1.611,1.232,2.263,2.589,1.4a3.66,3.66,0,0,0,1.658-2.334c.124-.556.215-1.12.295-1.685.484-3.413,1.923-6.164,5.367-7.387a12.138,12.138,0,0,0,5.888-4.751,6.2,6.2,0,0,1,4.053-2.512c2-.392,2.283-.678,2.589-2.646a14.944,14.944,0,0,0,.2-1.7,9.874,9.874,0,0,1,2.2-6.185q-.791-1.356-1.657-2.661a33.043,33.043,0,0,1-2.58,2.762" transform="translate(-1036.213 -329.458)" fill="#002f87"/>
      <path id="Trazado_7914" data-name="Trazado 7914" d="M504.771,36.391c1.908,2.742,3.767,5.519,5.61,8.306a15.532,15.532,0,0,1,1.16,2.423,5.7,5.7,0,0,1-.193,5.289,3.375,3.375,0,0,0-.435,1.877,1.335,1.335,0,0,0,1.207,1.327,2.842,2.842,0,0,0,3.132-2.63,22.074,22.074,0,0,1,.217-4.141,3.472,3.472,0,0,0-.755-2.98,5.393,5.393,0,0,1-1.165-2.661,3.458,3.458,0,0,0-1.378-2.372,11.714,11.714,0,0,1-3.743-5.184,7.873,7.873,0,0,0-1.363-2.146q-1.989.6-3.912,1.348a5.466,5.466,0,0,1,1.617,1.544" transform="translate(-468.281 -31.178)" fill="#002f87"/>
      <path id="Trazado_7915" data-name="Trazado 7915" d="M609.967,7.3a1.818,1.818,0,0,0,2.339.366c2.158-1.335,4.032-2.969,4.781-5.5A10.168,10.168,0,0,0,617.508.1q-2.024.06-4.01.263a6.367,6.367,0,0,1,.246,2.227,1.85,1.85,0,0,1-1.618,1.717,1.719,1.719,0,0,1-1.718-1.287,3.557,3.557,0,0,1-.181-1.2,6.154,6.154,0,0,0-.085-1q-1.824.3-3.606.722a9.01,9.01,0,0,1,.659,1.346A11,11,0,0,0,609.967,7.3" transform="translate(-564.498 -0.093)" fill="#002f87"/>
      <path id="Trazado_7916" data-name="Trazado 7916" d="M2.524,694.428c.091.269.134.555.22.826q.649,2.038,1.31,4.072a6.687,6.687,0,0,0,3.375,3.86c1.076.58,2.189,1.092,3.279,1.646a4.974,4.974,0,0,1,2.042,1.519c2.168,3.276,3.452,6.743,2.11,10.719a3.223,3.223,0,0,0,.014,2.622,48.913,48.913,0,0,1,3.021,7.734,3.934,3.934,0,0,0,1.207,1.809,2.312,2.312,0,0,0,3.026-.076,1.937,1.937,0,0,0,.156-2.564c-.47-.763-1.013-1.48-1.5-2.236a13.136,13.136,0,0,1-2.159-9.419,12.588,12.588,0,0,0-.492-5.679,32.744,32.744,0,0,0-2.978-6.014,2.906,2.906,0,0,0-2.687-1.581,5.326,5.326,0,0,1-5.187-3.756,10.694,10.694,0,0,1-.538-1.621,7.982,7.982,0,0,0-4.458-5.64c-.271-.144-.545-.284-.818-.427q-.155,1.232-.254,2.481c.566.193.98.757,1.307,1.725" transform="translate(-1.133 -642.384)" fill="#002f87"/>
      <path id="Trazado_7917" data-name="Trazado 7917" d="M28.62,998.44a4.635,4.635,0,0,1,2.758,4.275,5.889,5.889,0,0,0,.343,1.919q.757,1.068,1.563,2.1c.215.255.425.513.624.778a55.073,55.073,0,0,0,3.837,4.253,9.43,9.43,0,0,1,3.7.618,2.719,2.719,0,0,0,2.269-.04,13.224,13.224,0,0,0,3.576-2.738,1.955,1.955,0,0,0-1.535-3.171c-.912-.018-1.375.581-1.9,1.151a3.534,3.534,0,0,1-5.034.646,7.867,7.867,0,0,1-3.105-3.834c-.792-1.964-1.494-3.966-2.16-5.977a3.869,3.869,0,0,0-3.576-2.98,4.017,4.017,0,0,1-3.286-2.068,5.9,5.9,0,0,1-.818-2.541,5.09,5.09,0,0,0-2.5-4.189,54.373,54.373,0,0,0,4.3,11.326q.473.238.946.473" transform="translate(-21.756 -918.258)" fill="#002f87"/>
      <path id="Trazado_7918" data-name="Trazado 7918" d="M155.641,288.118a33.043,33.043,0,0,0,4.823,5,11.841,11.841,0,0,0,2.438,1.826c1.025.51,1.809.439,2.321-.23a1.781,1.781,0,0,0-.393-2.4,13.045,13.045,0,0,0-1.667-1.233c-3.437-2.521-5.912-5.688-6.693-9.991a9.841,9.841,0,0,0-1.216-3.3q-1.234,1.449-2.367,2.981a12.492,12.492,0,0,1,.556,2.361,10.734,10.734,0,0,0,2.2,4.981" transform="translate(-142.29 -258.54)" fill="#002f87"/>
      <path id="Trazado_7919" data-name="Trazado 7919" d="M15.594,591.3a9.365,9.365,0,0,1,4.186,5.937,11.455,11.455,0,0,0,.741,2.066,2.8,2.8,0,0,0,2.047,1.593,1.236,1.236,0,0,0,1.67-1.114,5.025,5.025,0,0,0-.357-2.634,16.9,16.9,0,0,0-6.583-8.42,16.427,16.427,0,0,1-4.219-3.733q-.538,2.011-.926,4.079a13.716,13.716,0,0,0,1.586,1.042c.637.362,1.243.779,1.855,1.183" transform="translate(-11.311 -544.446)" fill="#002f87"/>
      <path id="Trazado_7920" data-name="Trazado 7920" d="M4.9,844.732a4.681,4.681,0,0,1,2.019,3.216c.106.6.163,1.209.263,1.81a2.746,2.746,0,0,0,1.7,2.347c1.3.512,2.192.005,2.321-1.376a7.551,7.551,0,0,0,.008-1.586c-.376-3.142-1.448-5.832-4.628-7.2a26.5,26.5,0,0,1-2.67-1.474A8.376,8.376,0,0,1,0,835.54a54.861,54.861,0,0,0,.8,6.709,13.822,13.822,0,0,0,1.525.863A21.383,21.383,0,0,1,4.9,844.732" transform="translate(0 -777.63)" fill="#002f87"/>
      <path id="Trazado_7921" data-name="Trazado 7921" d="M373.512,87.642a16.088,16.088,0,0,1,4.159,7.9,4.819,4.819,0,0,0,.5,1.626c.429.73.968,1.341,1.942,1.192.774-.118,1.3-.873,1.405-1.915a6.852,6.852,0,0,0-1.008-4.319c-1.348-2.237-2.935-4.318-4.276-6.553a5.732,5.732,0,0,0-5.075-3.041,54.674,54.674,0,0,0-4.851,2.738,8.323,8.323,0,0,0,2.949.467,5.577,5.577,0,0,1,4.251,1.9" transform="translate(-340.924 -76.813)" fill="#002f87"/>
      <path id="Trazado_7922" data-name="Trazado 7922" d="M287.448,156.906c3.089-.538,4.776.375,6.022,3.265.6,1.384,1.138,2.793,1.68,4.2a10.593,10.593,0,0,0,5.1,5.995c1.9.967,3.522.454,4.4-1.505a1.618,1.618,0,0,0-1.586-2.483c-.529-.015-1.06.013-1.59,0a2.908,2.908,0,0,1-2.758-1.685,18.746,18.746,0,0,1-1.03-2.481c-.424-1.276-.812-2.571-1.342-3.8-1.2-2.787-2.954-4.8-6.363-4.827a7.791,7.791,0,0,1-4.178-1.229q-1.378,1.011-2.69,2.1c.514.528,1.028,1.057,1.551,1.577a2.937,2.937,0,0,0,2.774.87" transform="translate(-263.5 -141.796)" fill="#002f87"/>
      <path id="Trazado_7923" data-name="Trazado 7923" d="M689.043,1428.517c-.957-.32-1.654-.168-2.079.727-.7,1.472-1.324,3-.7,4.694a7.951,7.951,0,0,1,.259,4.527q1.565.188,3.155.287c.365-2.088.428-4.23,1.287-6.235.824-1.922.083-3.332-1.919-4" transform="translate(-638.461 -1329.365)" fill="#002f87"/>
      <path id="Trazado_7924" data-name="Trazado 7924" d="M596.99,1522.471c-.079-1.2-.776-1.642-1.921-1.274a3.242,3.242,0,0,0-2.231,2.253q1.956.5,3.965.856c.036-.126.073-.252.111-.377a4.13,4.13,0,0,0,.075-1.457" transform="translate(-551.749 -1415.648)" fill="#002f87"/>
      <path id="Trazado_7925" data-name="Trazado 7925" d="M1004.535,599.53a8.306,8.306,0,0,1-2.39.469,2.5,2.5,0,0,0-2.052,1.34,17.263,17.263,0,0,0-2.577,11.346,9.032,9.032,0,0,1-1.361,5.937c-.945,1.578-2.005,3.072-3.079,4.558a4.625,4.625,0,0,0-.727,3.5,1.516,1.516,0,0,0,1.909,1.395c.918-.115,1.3-.773,1.573-1.522a16.852,16.852,0,0,1,2.119-4.39,28.37,28.37,0,0,0,3.135-5.512,4.316,4.316,0,0,0,.04-3.767,5.512,5.512,0,0,1-.589-2.616c.291-3.283,1.3-6.13,4.624-7.583.448-.2.874-.44,1.317-.649a7.616,7.616,0,0,0,4.6-5.77,45.99,45.99,0,0,1,1.346-5.2,1.775,1.775,0,0,1,2.372-1.331,1.757,1.757,0,0,1,.716,2.6,16.939,16.939,0,0,0-1.65,5.339,8.306,8.306,0,0,1-3.353,5.351c-1.335.948-2.807,1.658-4.161,2.562a5.582,5.582,0,0,0-2.749,5.6,1.711,1.711,0,0,0,1.048,1.532,1.574,1.574,0,0,0,1.661-.493,4.56,4.56,0,0,0,1.272-1.773,8.994,8.994,0,0,1,4.116-4.521c.6-.339,1.184-.72,1.767-1.093a7.171,7.171,0,0,0,3.252-4.553,46.044,46.044,0,0,0,1.482-9.028,7.426,7.426,0,0,1,3.275-6.112,6.656,6.656,0,0,0,1.257-1.154,2.673,2.673,0,0,0,.6-2.051c-.086-.94-.478-1.29-1.436-1.248a3.074,3.074,0,0,0-1.967.885,7.93,7.93,0,0,0-1.607,1.667c-1.422,2.455-3.667,3.719-6.216,4.658a5.424,5.424,0,0,0-3.636,4.261c-.181.919-.3,1.853-.526,2.76-.5,1.995-1.29,3.8-3.409,4.613" transform="translate(-923.51 -540.437)" fill="#002f87"/>
      <path id="Trazado_7926" data-name="Trazado 7926" d="M792.717,1313.058a2.538,2.538,0,0,0,2.118-1.441c.358-.733.736-1.455,1.077-2.2a10.486,10.486,0,0,1,3.589-4.69,5.68,5.68,0,0,0,.88-.845,1.558,1.558,0,0,0,.27-1.818,1.688,1.688,0,0,0-1.572-1.16,3.5,3.5,0,0,0-2.092.547,5.94,5.94,0,0,0-2.747,3.741,7.67,7.67,0,0,1-3.819,5.132,21.846,21.846,0,0,1-4.472,1.944,2.855,2.855,0,0,0-2.062,2.2q-.662,2.875-1.245,5.766c.141,0,.281.005.422.005,1.055,0,2.1-.033,3.142-.092q.179-.765.344-1.533c.777-3.633,2.433-5.065,6.166-5.558" transform="translate(-728.399 -1210.743)" fill="#002f87"/>
      <path id="Trazado_7927" data-name="Trazado 7927" d="M722.833,100.529c-3.386,3.114-7.24,5.667-10.6,8.836-2.647,2.493-5.067,5.038-6.377,8.51a7.613,7.613,0,0,1-4.775,4.6,9.288,9.288,0,0,1-5.416.672,3.845,3.845,0,0,0-1.983.336,1.869,1.869,0,0,0-.729,2.707c.88,1.211,3.621,1.983,4.9,1.177a29.4,29.4,0,0,1,6.739-2.829,5.766,5.766,0,0,0,3.591-3.445c.268-.638.49-1.3.746-1.94.911-2.292,1.943-4.58,3.911-6.118a74.37,74.37,0,0,0,8.437-7.219,2.112,2.112,0,0,1,.2-.145c2.443-2.035,5.035-3.9,7.308-6.129q-1.5-.959-3.061-1.819c-.945.953-1.9,1.9-2.884,2.806" transform="translate(-644.621 -90.95)" fill="#002f87"/>
      <path id="Trazado_7928" data-name="Trazado 7928" d="M456.8,623.063a1.3,1.3,0,0,0-.2.146,1.841,1.841,0,0,0-.787,2.136,2.327,2.327,0,0,0,2.087,1.438c2.473-.289,3.294-.845,3.67-2.962a30.228,30.228,0,0,0,.477-5.463,5.138,5.138,0,0,0-1.668-4.04,5.221,5.221,0,0,1-1.6-2.961,8.729,8.729,0,0,1,1.317-6.421c.447-.728.995-1.393,1.467-2.106a12.461,12.461,0,0,0-.06-12.958,38.13,38.13,0,0,1-3.137-5.658,9.187,9.187,0,0,0-1.819-2.874c-.61-.594-1.232-.961-2.06-.506a2.029,2.029,0,0,0-.835,2.141,6.106,6.106,0,0,0,.854,1.885c1.532,2.41,2.824,4.955,4.163,7.473a10.03,10.03,0,0,1,1.12,3.35c.312,2.3.254,4.646-1.745,6.161a5.622,5.622,0,0,0-2.469,4.7c-.1,3.415-.688,6.884,1.965,9.733a4.107,4.107,0,0,1,.509.833c1.248,2.25,1.334,4.746-1.255,5.953" transform="translate(-422.173 -540.387)" fill="#002f87"/>
      <path id="Trazado_7929" data-name="Trazado 7929" d="M366.245,530.674a4.033,4.033,0,0,0,.676-3.02c-.476-2.617-1.832-4.859-3.055-7.152a43.828,43.828,0,0,1-3.069-6.368c-.711-2.083-.266-3.187,1.629-4.072,1.138-.531,1.574-1.156,1.4-2.01a2.36,2.36,0,0,0-2.083-1.61c-2.721-.236-4.67,1.531-4.68,4.466a8.091,8.091,0,0,0,.225,1.711,39.106,39.106,0,0,0,3.326,9.156,18.178,18.178,0,0,1,1.919,5.89,6.458,6.458,0,0,0,.939,3,1.535,1.535,0,0,0,2.77.01" transform="translate(-332.317 -471.322)" fill="#002f87"/>
      <path id="Trazado_7930" data-name="Trazado 7930" d="M697.419,9.574a2.044,2.044,0,0,0-1.433,1.987,2.048,2.048,0,0,0,1.045,2.014,1.819,1.819,0,0,0,2.211-.547c1.046-1.03,2.013-2.147,3.117-3.109,3.017-2.627,4.24-6.12,5.313-9.688-1.253-.119-2.517-.2-3.793-.233a6.152,6.152,0,0,1-.155,1.212c-.882,3.7-2.739,6.675-6.305,8.363" transform="translate(-647.748 0.002)" fill="#002f87"/>
      <path id="Trazado_7931" data-name="Trazado 7931" d="M1529,985.531a8.524,8.524,0,0,0,.038,1.949c.056.277.1.552.132.826a54.388,54.388,0,0,0,1.593-5.215c-.023,0-.047,0-.07,0-.959,0-1.645.975-1.692,2.444" transform="translate(-1422.995 -914.951)" fill="#002f87"/>
      <path id="Trazado_7932" data-name="Trazado 7932" d="M605.6,1073.532a3.885,3.885,0,0,0,.1.968,11.094,11.094,0,0,1-.531,6.941,5.4,5.4,0,0,0-.278,1.062,1.343,1.343,0,0,0,.118.948,3.179,3.179,0,0,0,3.165,1.1c1.075-.274,1.435-.847,1.483-2.2.032-.906-.229-1.776-.253-2.672a24.3,24.3,0,0,1,.379-5.59,1.926,1.926,0,0,0-2.079-2.564,1.878,1.878,0,0,0-2.1,2.005" transform="translate(-562.932 -997.261)" fill="#002f87"/>
      <path id="Trazado_7933" data-name="Trazado 7933" d="M661.471,560.326c.338-1,.64-2.053-.267-2.964a1.351,1.351,0,0,0-.373-.308,10.2,10.2,0,0,0-2.82-.9c-1.575-.007-2.3.816-2.064,2.189a6.336,6.336,0,0,0,2.06,3.765,1.465,1.465,0,0,0,1.315.5,3.089,3.089,0,0,0,2.15-2.284" transform="translate(-610.445 -517.61)" fill="#002f87"/>
    </g>
  </g>
</svg>
