<svg xmlns="http://www.w3.org/2000/svg" width="137.002" height="54.361" viewBox="0 0 137.002 54.361">
  <g id="Grupo_19072" data-name="Grupo 19072" transform="translate(-105.434 -328.434)">
    <g id="Grupo_19054" data-name="Grupo 19054" transform="translate(105.434 328.434)">
      <g id="Grupo_19052" data-name="Grupo 19052" transform="translate(0 0)">
        <g id="Grupo_19050" data-name="Grupo 19050" transform="translate(70.013)">
          <path id="Trazado_7623" data-name="Trazado 7623" d="M945.273,470.356H914.988v-8.4l6.514-5.314,8.742-7.028c4.971-3.885,5.486-6.057,5.486-8.514,0-4.114-3.314-5.314-6.171-5.314-4.914,0-6.514,6-6.685,6.571l-8.8-2.171c1.2-4.228,5.885-12.285,15.485-12.285,10.4,0,15.256,6.857,15.256,13.2,0,6-4.171,10.742-9.2,14.914-2.114,1.657-5.143,4.114-8.285,6.514h17.942Z" transform="translate(-914.074 -427.901)" fill="#fff"/>
          <path id="Trazado_7624" data-name="Trazado 7624" d="M1139.458,436.253l-19.952,34.1h-10.556L1129.6,435.9h-21.981v-8h31.841Z" transform="translate(-1072.471 -427.901)" fill="#fff"/>
        </g>
        <g id="Grupo_19051" data-name="Grupo 19051">
          <path id="Trazado_7625" data-name="Trazado 7625" d="M808.6,470.356V427.9h9.176v42.455Z" transform="translate(-757.741 -427.901)" fill="#425cc7"/>
          <path id="Trazado_7626" data-name="Trazado 7626" d="M538.325,470.356h-9.8L547.193,427.9h9.239l17.253,42.455h-9.741l-12.7-29.217Z" transform="translate(-528.527 -427.901)" fill="#425cc7"/>
        </g>
      </g>
      <g id="Grupo_19053" data-name="Grupo 19053" transform="translate(9.783 48.897)">
        <path id="Trazado_7627" data-name="Trazado 7627" d="M585.928,698.351a2.733,2.733,0,0,0-1.751-.454H582.4v5.269h.729v-1.6h1.065a2.779,2.779,0,0,0,1.726-.44,1.659,1.659,0,0,0,.546-1.378A1.724,1.724,0,0,0,585.928,698.351Zm-.52,2.247a1.5,1.5,0,0,1-1.113.323h-1.167V698.54h1.034a2.1,2.1,0,0,1,1.155.251.984.984,0,0,1,.395.881A1.3,1.3,0,0,1,585.407,700.6Z" transform="translate(-582.398 -697.764)" fill="#fff"/>
        <path id="Trazado_7628" data-name="Trazado 7628" d="M614.886,701.185A1.488,1.488,0,0,0,616,699.574a1.528,1.528,0,0,0-.5-1.276,2.871,2.871,0,0,0-1.73-.4H611.83v5.269h.729V701.33h1.357l1.305,1.836h.934l-1.4-1.942Zm-1.082-.5h-1.245V698.54h1.269a1.984,1.984,0,0,1,1.086.216.922.922,0,0,1,.331.814,1.067,1.067,0,0,1-.315.851A1.752,1.752,0,0,1,613.8,700.686Z" transform="translate(-606.485 -697.764)" fill="#fff"/>
        <path id="Trazado_7629" data-name="Trazado 7629" d="M643.883,700.837H646.5v-.628h-2.618v-1.638H646.8V697.9h-3.644v5.269h3.737v-.675h-3.008Z" transform="translate(-632.121 -697.764)" fill="#fff"/>
        <path id="Trazado_7630" data-name="Trazado 7630" d="M673.074,697.9h-1.779v5.269h1.716a3.179,3.179,0,0,0,2.277-.715,2.6,2.6,0,0,0,.737-1.947,2.467,2.467,0,0,0-.758-1.917A3.174,3.174,0,0,0,673.074,697.9Zm1.654,4.1a2.305,2.305,0,0,1-1.584.5h-1.12v-3.935h1.019c1.49,0,2.245.663,2.245,1.972A1.876,1.876,0,0,1,674.728,701.994Z" transform="translate(-655.152 -697.764)" fill="#fff"/>
        <rect id="Rectángulo_6940" data-name="Rectángulo 6940" width="0.729" height="5.269" transform="translate(22.254 0.133)" fill="#fff"/>
        <path id="Trazado_7631" data-name="Trazado 7631" d="M720.1,698.037a2.545,2.545,0,0,1,.7.475l.46-.5a2.661,2.661,0,0,0-1.99-.842,2.806,2.806,0,0,0-2.034.785,2.643,2.643,0,0,0-.8,1.963,2.616,2.616,0,0,0,.788,1.947,2.741,2.741,0,0,0,1.988.77,2.637,2.637,0,0,0,1.973-.863l-.465-.477a2.82,2.82,0,0,1-.675.465,2.032,2.032,0,0,1-.861.169,1.911,1.911,0,0,1-1.393-.587,1.989,1.989,0,0,1-.587-1.459,1.906,1.906,0,0,1,.593-1.437,2.042,2.042,0,0,1,1.457-.562A2.174,2.174,0,0,1,720.1,698.037Z" transform="translate(-692.091 -697.167)" fill="#fff"/>
        <path id="Trazado_7632" data-name="Trazado 7632" d="M748.855,703.166h.729v-4.618h1.657V697.9H747.2v.651h1.656Z" transform="translate(-717.271 -697.764)" fill="#fff"/>
        <rect id="Rectángulo_6941" data-name="Rectángulo 6941" width="0.729" height="5.269" transform="translate(35.162 0.133)" fill="#fff"/>
        <path id="Trazado_7633" data-name="Trazado 7633" d="M786.485,697.9h-.824l2.118,5.269h.9L790.8,697.9h-.824l-1.745,4.236Z" transform="translate(-748.75 -697.764)" fill="#fff"/>
        <path id="Trazado_7634" data-name="Trazado 7634" d="M820.3,700.837h2.618v-.628H820.3v-1.638h2.915V697.9h-3.644v5.269h3.737v-.675H820.3Z" transform="translate(-776.503 -697.764)" fill="#fff"/>
        <rect id="Rectángulo_6942" data-name="Rectángulo 6942" width="0.729" height="5.269" transform="translate(50.133 0.133)" fill="#fff"/>
        <path id="Trazado_7635" data-name="Trazado 7635" d="M871.9,697.9v5.269h.729V699l3.238,4.17h.857V697.9h-.729v4.264l-3.316-4.264Z" transform="translate(-819.324 -697.764)" fill="#fff"/>
        <path id="Trazado_7636" data-name="Trazado 7636" d="M906.684,703.166h.729v-4.618h1.657V697.9h-4.042v.651h1.656Z" transform="translate(-846.44 -697.764)" fill="#fff"/>
        <path id="Trazado_7637" data-name="Trazado 7637" d="M934.585,700.837H937.2v-.628h-2.618v-1.638H937.5V697.9h-3.644v5.269h3.737v-.675h-3.008Z" transform="translate(-870.034 -697.764)" fill="#fff"/>
        <path id="Trazado_7638" data-name="Trazado 7638" d="M962.726,697.9H962v5.269h3.222v-.682h-2.493Z" transform="translate(-893.065 -697.764)" fill="#fff"/>
        <path id="Trazado_7639" data-name="Trazado 7639" d="M987.08,697.9h-.729v5.269h3.222v-.682H987.08Z" transform="translate(-912.995 -697.764)" fill="#fff"/>
        <rect id="Rectángulo_6943" data-name="Rectángulo 6943" width="0.729" height="5.269" transform="translate(77.778 0.133)" fill="#fff"/>
        <path id="Trazado_7640" data-name="Trazado 7640" d="M1023.538,701.387a2.147,2.147,0,0,1,.016-2.945,2.043,2.043,0,0,1,1.457-.562,2.542,2.542,0,0,1,.784.11,1.953,1.953,0,0,1,.6.33l.382-.546a2.8,2.8,0,0,0-1.832-.608,2.694,2.694,0,0,0-1.945.785,2.643,2.643,0,0,0-.8,1.963,2.616,2.616,0,0,0,.788,1.947,2.706,2.706,0,0,0,1.96.77,2.77,2.77,0,0,0,2.115-.793V700.1h-.729v1.456l-.045.029a2.466,2.466,0,0,1-1.353.351A1.94,1.94,0,0,1,1023.538,701.387Z" transform="translate(-942.329 -697.167)" fill="#fff"/>
        <path id="Trazado_7641" data-name="Trazado 7641" d="M1057.431,700.837h2.618v-.628h-2.618v-1.638h2.915V697.9H1056.7v5.269h3.737v-.675h-3.008Z" transform="translate(-970.572 -697.764)" fill="#fff"/>
        <path id="Trazado_7642" data-name="Trazado 7642" d="M1084.843,697.9v5.269h.729V699l3.238,4.17h.857V697.9h-.729v4.264l-3.316-4.264Z" transform="translate(-993.602 -697.764)" fill="#fff"/>
        <path id="Trazado_7643" data-name="Trazado 7643" d="M1122.552,698.037a2.538,2.538,0,0,1,.695.475l.46-.5a2.661,2.661,0,0,0-1.99-.842,2.805,2.805,0,0,0-2.035.785,2.8,2.8,0,0,0-.016,3.909,2.741,2.741,0,0,0,1.988.77,2.638,2.638,0,0,0,1.973-.863l-.464-.477a2.824,2.824,0,0,1-.675.465,2.032,2.032,0,0,1-.861.169,1.911,1.911,0,0,1-1.393-.587,1.988,1.988,0,0,1-.587-1.459,1.906,1.906,0,0,1,.593-1.437,2.043,2.043,0,0,1,1.457-.562A2.174,2.174,0,0,1,1122.552,698.037Z" transform="translate(-1021.457 -697.167)" fill="#fff"/>
        <path id="Trazado_7644" data-name="Trazado 7644" d="M1153.214,700.837h2.618v-.628h-2.618v-1.638h2.915V697.9h-3.644v5.269h3.737v-.675h-3.008Z" transform="translate(-1048.96 -697.764)" fill="#fff"/>
      </g>
    </g>
  </g>
</svg>
