<svg xmlns="http://www.w3.org/2000/svg" xmlns:xlink="http://www.w3.org/1999/xlink" width="45.046" height="48.912" viewBox="0 0 45.046 48.912">
  <defs>
    <clipPath id="clip-path">
      <path id="Trazado_7709" data-name="Trazado 7709" d="M73.9,412.868a.82.82,0,0,0-.007,1.625c.44.009.723-.306.725-.807a.725.725,0,0,0-.706-.818H73.9" transform="translate(-73.191 -412.868)" fill="none"/>
    </clipPath>
    <radialGradient id="radial-gradient" cx="0.504" cy="0.497" r="0.468" gradientTransform="matrix(1.133, 0, 0, -1, 5.764, 633.482)" gradientUnits="objectBoundingBox">
      <stop offset="0" stop-color="#fff"/>
      <stop offset="1" stop-color="#f2f4fb"/>
    </radialGradient>
    <clipPath id="clip-path-2">
      <path id="Trazado_7711" data-name="Trazado 7711" d="M73.53,448.243H61.415a1.437,1.437,0,0,0-.333.014.678.678,0,0,0-.59.747.663.663,0,0,0,.63.66,2.983,2.983,0,0,0,.428.01H73.19c.19,0,.382.007.572-.006a.693.693,0,0,0,.711-.682.706.706,0,0,0-.7-.743,1.009,1.009,0,0,0-.1,0l-.137,0" transform="translate(-60.491 -448.241)" fill="none"/>
    </clipPath>
    <radialGradient id="radial-gradient-2" cx="0.5" cy="0.5" r="3.423" gradientTransform="matrix(0.104, 0, 0, -1, -3.3, 671.187)" xlink:href="#radial-gradient"/>
    <clipPath id="clip-path-3">
      <path id="Trazado_7712" data-name="Trazado 7712" d="M61.121,453.721a.664.664,0,0,0-.626.613.648.648,0,0,0,.452.748,1.572,1.572,0,0,0,.515.061q2.98.005,5.963,0h4.722c.54,0,1.081.015,1.621-.009a.711.711,0,0,0-.008-1.422c-.079-.005-.159,0-.238,0H61.454l-.175,0a1.211,1.211,0,0,0-.158.009" transform="translate(-60.489 -453.712)" fill="none"/>
    </clipPath>
    <radialGradient id="radial-gradient-3" cx="0.5" cy="0.497" r="3.431" gradientTransform="matrix(0.103, 0, 0, -1, -3.296, 665.535)" xlink:href="#radial-gradient"/>
    <clipPath id="clip-path-4">
      <path id="Trazado_7713" data-name="Trazado 7713" d="M66.224,442.778q-2.43,0-4.862,0c-.419,0-.762.12-.859.58-.1.493.229.847.813.85,1.35.009,2.7,0,4.052,0,1.335,0,2.669,0,4,0,.591,0,.883-.233.9-.687s-.3-.739-.9-.742l-1.3,0H66.224" transform="translate(-60.484 -442.777)" fill="none"/>
    </clipPath>
    <radialGradient id="radial-gradient-4" cx="0.504" cy="0.498" r="2.431" gradientTransform="matrix(0.146, 0, 0, -1, -4.456, 684.419)" xlink:href="#radial-gradient"/>
    <clipPath id="clip-path-5">
      <path id="Trazado_7714" data-name="Trazado 7714" d="M61.342,437.33c-.556.007-.838.24-.852.682-.015.459.28.739.846.743q2.118.017,4.236,0c.578,0,.875-.262.877-.715s-.293-.707-.87-.712c-.7-.007-1.4,0-2.1,0l-1.25,0c-.3,0-.595,0-.892,0" transform="translate(-60.489 -437.327)" fill="none"/>
    </clipPath>
    <radialGradient id="radial-gradient-5" cx="0.5" cy="0.5" r="1.506" gradientTransform="matrix(0.242, 0, 0, -1, -6.552, 688.473)" xlink:href="#radial-gradient"/>
    <clipPath id="clip-path-7">
      <path id="Trazado_7715" data-name="Trazado 7715" d="M85.548,437h2.114v3.76H85.548Zm5.565,5.294c-.56-.332-1.131-.647-1.672-1.009a.748.748,0,0,1-.293-.518c-.025-1.255-.019-2.512,0-3.767a.588.588,0,0,1,.182-.439c1.023-.634,2.062-1.244,3.172-1.9v8.459c-.5-.3-.941-.56-1.384-.822m.728-8.916a11.457,11.457,0,0,0-1.184.714,6.793,6.793,0,0,1-5.059,1.456c-.979-.111-1.5.489-1.5,1.478q-.012,1.863,0,3.726a1.317,1.317,0,0,0,1.465,1.483c.289,0,.58,0,.869,0,.443,0,.886-.007,1.328.013a1.915,1.915,0,0,1,.845.232c1.078.613,2.135,1.264,3.2,1.894a1.32,1.32,0,0,0,2.146-1.214c.005-1.417,0-2.833,0-4.25,0-1.448.006-2.9,0-4.345a1.287,1.287,0,0,0-1.24-1.442,1.737,1.737,0,0,0-.867.256" transform="translate(-84.088 -433.127)" fill="none"/>
    </clipPath>
    <radialGradient id="radial-gradient-7" cx="0.5" cy="0.484" r="0.45" gradientTransform="matrix(1.207, 0, 0, -1, 1.505, 84.002)" xlink:href="#radial-gradient"/>
    <clipPath id="clip-path-8">
      <path id="Trazado_7716" data-name="Trazado 7716" d="M98.972,434.383c-.2.4-.038.758.471,1.032a4.036,4.036,0,0,1,.005,7.2c-.51.277-.675.632-.479,1.029.211.427.611.521,1.143.236a5.44,5.44,0,0,0,.009-9.732,1.171,1.171,0,0,0-.548-.161.65.65,0,0,0-.6.392" transform="translate(-98.889 -433.991)" fill="none"/>
    </clipPath>
    <radialGradient id="radial-gradient-8" cx="0.513" cy="0.494" r="0.379" gradientTransform="matrix(2.338, 0, 0, -1, 25.916, 98.177)" xlink:href="#radial-gradient"/>
    <clipPath id="clip-path-9">
      <path id="Trazado_7717" data-name="Trazado 7717" d="M97.392,437.223a.711.711,0,0,0,.145,1.046,1.4,1.4,0,0,1-.008,2.375.7.7,0,0,0-.159,1.009.722.722,0,0,0,1.057.1,2.819,2.819,0,0,0-.014-4.6.857.857,0,0,0-.5-.182.669.669,0,0,0-.521.257" transform="translate(-97.22 -436.966)" fill="none"/>
    </clipPath>
    <radialGradient id="radial-gradient-9" cx="0.52" cy="0.49" r="0.385" gradientTransform="matrix(2.033, 0, 0, -1, 34.372, 196.278)" xlink:href="#radial-gradient"/>
    <clipPath id="clip-path-10">
      <path id="Trazado_7708" data-name="Trazado 7708" d="M77.462,444.051c.02-1.512,0-3.024.011-4.536a2.205,2.205,0,0,0-1.151-2.051c-1.106-.66-2.209-1.325-3.384-2.032,1.109-.666,2.143-1.318,3.208-1.919a2.4,2.4,0,0,0,1.332-2.338c-.036-1.463,0-2.928-.016-4.393,0-.4.132-.532.525-.531q10.364.011,20.725,0c.366,0,.509.125.509.5q-.01,8.667,0,17.335c0,.4-.153.511-.537.51q-10.338-.013-20.677,0h0c-.414,0-.55-.13-.544-.547m-3.093-28.783a.955.955,0,0,1,.927-.507c1.588.012,3.178.011,4.768.009h2.252a3.047,3.047,0,0,1,3.3,3.259c.005,2.1,0,4.2,0,6.3,0,.141-.013.282-.022.493h-.615q-3.486,0-6.972,0a1.729,1.729,0,0,0-1.964,1.962c0,1.433-.025,2.866.01,4.3a1.2,1.2,0,0,1-.681,1.231c-1.055.589-2.08,1.231-3.114,1.856a1.38,1.38,0,0,0,0,2.517c1.06.644,2.115,1.3,3.193,1.911a1.081,1.081,0,0,1,.6,1.08c-.025,1.5-.012,2.993-.009,4.489a1.682,1.682,0,0,0,1.868,1.854q3.557,0,7.115,0h.551c.015.176.038.313.038.45,0,1.162.009,2.324,0,3.486a3.043,3.043,0,0,1-3.218,3.2q-11.055.005-22.11,0a3.055,3.055,0,0,1-3.23-3.2q-.012-16.02,0-32.041a3.033,3.033,0,0,1,3.179-3.146c1.158,0,2.317,0,3.475,0,1.293,0,2.586,0,3.878,0a.793.793,0,0,1,.772.433,3.489,3.489,0,0,0,6.012.072m-9.133-5.76c-.322.237-.591.505-.427.952s.53.485.937.485q8.356-.008,16.711,0A3.044,3.044,0,0,1,85.61,414.2c0,.072-.02.144-.041.3a5.5,5.5,0,0,0-4.1-1.17c-2.1.034-4.2.017-6.3,0a2.012,2.012,0,0,0-1.932,1.072,2.1,2.1,0,0,1-3.721-.047,1.821,1.821,0,0,0-1.762-1.019q-3.819,0-7.639,0a4.57,4.57,0,0,0-2.977,1.118,2.918,2.918,0,0,1,2.262-3.405,9.819,9.819,0,0,1,1.86-.1c.2,0,.408,0,.61,0,.408-.006.778-.051.936-.488s-.1-.716-.43-.951H59.5a9.992,9.992,0,0,0-1.126.36,4.433,4.433,0,0,0-2.759,4.114c-.005.111,0,.223,0,.335q0,19.648,0,39.3a4.529,4.529,0,0,0,2.8,4.47c.351.14.722.226,1.084.337H74.311c.05-.056.125-.106.146-.171.079-.271.255-.586.178-.811a.9.9,0,0,0-.65-.43,11.793,11.793,0,0,0-1.525-.021c-4.108,0-8.214.009-12.321,0a3.044,3.044,0,0,1-3.056-3.467c.03-.005.07-.026.084-.014a5.255,5.255,0,0,0,3.512,1.1q10.53-.029,21.06,0a5.244,5.244,0,0,0,3.784-1.14,2.945,2.945,0,0,1-2.2,3.422,4.122,4.122,0,0,1-.945.1q-2.365.014-4.728,0c-.4,0-.778.022-.952.46s.084.716.382.976h6.114c.025-.02.046-.049.074-.056a4.48,4.48,0,0,0,3.775-4.869q0-3.437,0-6.874v-.6h.639c3.644,0,7.289-.033,10.932.017a1.854,1.854,0,0,0,2.045-2.046c-.029-5.712-.012-11.426-.013-17.138,0-1.41-.626-2.031-2.042-2.032q-5.491,0-10.981,0c-.182,0-.364-.019-.58-.032v-.62c0-3.341.008-6.684,0-10.025a4.458,4.458,0,0,0-2.811-4.314c-.335-.132-.69-.218-1.035-.325Z" transform="translate(-55.615 -409.507)" fill="none"/>
    </clipPath>
    <radialGradient id="radial-gradient-10" cx="0.5" cy="0.5" r="0.481" gradientTransform="matrix(1.086, 0, 0, -1, 0.09, 21.286)" xlink:href="#radial-gradient"/>
  </defs>
  <g id="icon3" transform="translate(-247.467 -4802.326)">
    <g id="Grupo_19170" data-name="Grupo 19170" transform="translate(262.468 4805.195)">
      <g id="Grupo_19169" data-name="Grupo 19169" clip-path="url(#clip-path)">
        <rect id="Rectángulo_7028" data-name="Rectángulo 7028" width="1.442" height="1.634" transform="translate(-0.012 0)" fill="url(#radial-gradient)"/>
      </g>
    </g>
    <g id="Grupo_19174" data-name="Grupo 19174" transform="translate(251.629 4835.386)">
      <g id="Grupo_19173" data-name="Grupo 19173" clip-path="url(#clip-path-2)">
        <rect id="Rectángulo_7030" data-name="Rectángulo 7030" width="14.018" height="1.453" transform="translate(-0.022 -0.009)" fill="url(#radial-gradient-2)"/>
      </g>
    </g>
    <g id="Grupo_19176" data-name="Grupo 19176" transform="translate(251.627 4840.055)">
      <g id="Grupo_19175" data-name="Grupo 19175" clip-path="url(#clip-path-3)">
        <rect id="Rectángulo_7031" data-name="Rectángulo 7031" width="14.035" height="1.451" transform="translate(-0.036 -0.001)" fill="url(#radial-gradient-3)"/>
      </g>
    </g>
    <g id="Grupo_19178" data-name="Grupo 19178" transform="translate(251.623 4830.722)">
      <g id="Grupo_19177" data-name="Grupo 19177" clip-path="url(#clip-path-4)">
        <rect id="Rectángulo_7032" data-name="Rectángulo 7032" width="9.884" height="1.438" transform="translate(-0.085 0)" fill="url(#radial-gradient-4)"/>
      </g>
    </g>
    <g id="Grupo_19180" data-name="Grupo 19180" transform="translate(251.628 4826.07)">
      <g id="Grupo_19179" data-name="Grupo 19179" clip-path="url(#clip-path-5)">
        <rect id="Rectángulo_7033" data-name="Rectángulo 7033" width="5.974" height="1.443" transform="translate(-0.014 -0.003)" fill="url(#radial-gradient-5)"/>
      </g>
    </g>
    <g id="Grupo_19316" data-name="Grupo 19316" transform="translate(251.628 4814.07)">
      <g id="Grupo_19179-2" data-name="Grupo 19179" clip-path="url(#clip-path-5)">
        <rect id="Rectángulo_7033-2" data-name="Rectángulo 7033" width="5.974" height="1.443" transform="translate(-0.014 -0.003)" fill="url(#radial-gradient-5)"/>
      </g>
    </g>
    <g id="Grupo_19182" data-name="Grupo 19182" transform="translate(271.769 4822.486)">
      <g id="Grupo_19181" data-name="Grupo 19181" clip-path="url(#clip-path-7)">
        <rect id="Rectángulo_7034" data-name="Rectángulo 7034" width="9.871" height="11.914" transform="translate(-0.002 0)" fill="url(#radial-gradient-7)"/>
      </g>
    </g>
    <g id="Grupo_19184" data-name="Grupo 19184" transform="translate(284.401 4823.223)">
      <g id="Grupo_19183" data-name="Grupo 19183" clip-path="url(#clip-path-8)">
        <rect id="Rectángulo_7035" data-name="Rectángulo 7035" width="4.353" height="10.179" transform="translate(-0.117 0)" fill="url(#radial-gradient-8)"/>
      </g>
    </g>
    <g id="Grupo_19186" data-name="Grupo 19186" transform="translate(282.977 4825.762)">
      <g id="Grupo_19185" data-name="Grupo 19185" clip-path="url(#clip-path-9)">
        <rect id="Rectángulo_7036" data-name="Rectángulo 7036" width="2.491" height="5.066" transform="translate(-0.099 0)" fill="url(#radial-gradient-9)"/>
      </g>
    </g>
    <g id="Grupo_19168" data-name="Grupo 19168" transform="translate(247.467 4802.326)">
      <g id="Grupo_19167" data-name="Grupo 19167" clip-path="url(#clip-path-10)">
        <rect id="Rectángulo_7027" data-name="Rectángulo 7027" width="45.054" height="48.911" transform="translate(-0.001 0)" fill="url(#radial-gradient-10)"/>
      </g>
    </g>
  </g>
</svg>
