<svg xmlns="http://www.w3.org/2000/svg" width="10.788" height="11.897" viewBox="0 0 10.788 11.897">
  <path id="Icon_simple-email" data-name="Icon simple-email" d="M12.451,5.491a6.136,6.136,0,0,1-.2,1.331,3.851,3.851,0,0,1-.517,1.169,2.73,2.73,0,0,1-.877.83,2.476,2.476,0,0,1-1.281.316,1.857,1.857,0,0,1-.926-.227,1.586,1.586,0,0,1-.626-.642,1.984,1.984,0,0,1-1.679.843,1.707,1.707,0,0,1-1.465-.788,2.58,2.58,0,0,1-.364-.913,3.937,3.937,0,0,1-.048-1.191,5.532,5.532,0,0,1,.363-1.459A3.965,3.965,0,0,1,5.5,3.643a2.837,2.837,0,0,1,.922-.712,2.572,2.572,0,0,1,1.121-.249,3.486,3.486,0,0,1,.671.057,2.745,2.745,0,0,1,.52.156,2.814,2.814,0,0,1,.431.227c.132.085.264.172.4.262L9.238,7.132a1.245,1.245,0,0,0,.01.439.614.614,0,0,0,.134.271.482.482,0,0,0,.217.141.806.806,0,0,0,.763-.15,1.626,1.626,0,0,0,.409-.52,3.351,3.351,0,0,0,.275-.782,5.366,5.366,0,0,0,.12-.974,6.224,6.224,0,0,0-.153-1.82,3.617,3.617,0,0,0-.674-1.408,3.128,3.128,0,0,0-1.207-.907A4.382,4.382,0,0,0,7.372,1.1a3.884,3.884,0,0,0-1.74.379A3.991,3.991,0,0,0,4.311,2.529,5.045,5.045,0,0,0,3.446,4.11a7.126,7.126,0,0,0-.364,1.97,6.551,6.551,0,0,0,.186,2.01A3.631,3.631,0,0,0,4,9.531a3.065,3.065,0,0,0,1.244.865,4.774,4.774,0,0,0,1.717.287,5.882,5.882,0,0,0,1.127-.121c.186-.037.362-.082.53-.131a3.989,3.989,0,0,0,.456-.164l.236,1.06a2.616,2.616,0,0,1-.511.253,4.916,4.916,0,0,1-.6.175,5.89,5.89,0,0,1-1.261.141,6.612,6.612,0,0,1-2.3-.37,4.231,4.231,0,0,1-1.676-1.1A4.627,4.627,0,0,1,1.957,8.606,7.76,7.76,0,0,1,1.676,6.08,7.7,7.7,0,0,1,2.16,3.657,6,6,0,0,1,3.324,1.731,5.3,5.3,0,0,1,5.1.461,5.56,5.56,0,0,1,7.4,0,5.805,5.805,0,0,1,9.629.4a4.335,4.335,0,0,1,1.609,1.123,4.607,4.607,0,0,1,.955,1.734A6.632,6.632,0,0,1,12.451,5.491Zm-6.384.729A2.529,2.529,0,0,0,6.2,7.473a.672.672,0,0,0,.647.424.714.714,0,0,0,.222-.041A.79.79,0,0,0,7.32,7.7a1.361,1.361,0,0,0,.259-.312,2.4,2.4,0,0,0,.238-.528l.254-2.911a1.519,1.519,0,0,0-.4-.052,1.367,1.367,0,0,0-.658.151,1.3,1.3,0,0,0-.466.443,2.6,2.6,0,0,0-.309.729,6.18,6.18,0,0,0-.175,1Z" transform="translate(-1.67)" fill="#fff"/>
</svg>
