<svg xmlns="http://www.w3.org/2000/svg" width="11.22" height="11.22" viewBox="0 0 11.22 11.22">
  <path id="Icon_material-local-phone" data-name="Icon material-local-phone" d="M6.756,9.356a9.442,9.442,0,0,0,4.108,4.108l1.371-1.371a.62.62,0,0,1,.636-.15A7.11,7.11,0,0,0,15.1,12.3a.625.625,0,0,1,.623.623V15.1a.625.625,0,0,1-.623.623A10.6,10.6,0,0,1,4.5,5.123.625.625,0,0,1,5.123,4.5H7.3a.625.625,0,0,1,.623.623,7.081,7.081,0,0,0,.355,2.225.626.626,0,0,1-.156.636Z" transform="translate(-4.5 -4.5)" fill="#fff"/>
</svg>
