<svg xmlns="http://www.w3.org/2000/svg" width="24.633" height="17.054" viewBox="0 0 24.633 17.054">
  <g id="Icon_ionic-ios-mail" data-name="Icon ionic-ios-mail" transform="translate(-3.375 -7.875)">
    <path id="Trazado_7895" data-name="Trazado 7895" d="M27.806,10.35l-6.371,6.49a.114.114,0,0,0,0,.166l4.459,4.749a.768.768,0,0,1,0,1.09.772.772,0,0,1-1.09,0l-4.441-4.731a.122.122,0,0,0-.172,0l-1.084,1.1a4.768,4.768,0,0,1-3.4,1.433,4.863,4.863,0,0,1-3.47-1.474L11.2,18.113a.122.122,0,0,0-.172,0L6.584,22.844a.772.772,0,0,1-1.09,0,.768.768,0,0,1,0-1.09l4.459-4.749a.126.126,0,0,0,0-.166L3.576,10.35a.117.117,0,0,0-.2.083V23.419A1.9,1.9,0,0,0,5.27,25.313H26.113a1.9,1.9,0,0,0,1.895-1.895V10.433A.118.118,0,0,0,27.806,10.35Z" transform="translate(0 -0.385)" fill="#fff"/>
    <path id="Trazado_7896" data-name="Trazado 7896" d="M15.826,18.717a3.219,3.219,0,0,0,2.315-.971l9.291-9.456a1.861,1.861,0,0,0-1.172-.414H5.4a1.849,1.849,0,0,0-1.172.414l9.291,9.456A3.22,3.22,0,0,0,15.826,18.717Z" transform="translate(-0.134)" fill="#fff"/>
  </g>
</svg>
