<svg xmlns="http://www.w3.org/2000/svg" xmlns:xlink="http://www.w3.org/1999/xlink" width="110" height="93" viewBox="0 0 110 93">
  <defs>
    <clipPath id="clip-path">
      <rect id="Rect치ngulo_7239" data-name="Rect치ngulo 7239" width="110" height="93" rx="14" transform="translate(-187 8380)" fill="#002f87"/>
    </clipPath>
    <clipPath id="clip-path-2">
      <rect id="Rect치ngulo_7238" data-name="Rect치ngulo 7238" width="103.221" height="103.29" fill="#002f87"/>
    </clipPath>
  </defs>
  <g id="icon-ai" transform="translate(187 -8380)" opacity="0.35" clip-path="url(#clip-path)">
    <g id="Grupo_19535" data-name="Grupo 19535" transform="translate(-178.605 8399.724)" opacity="0.42" clip-path="url(#clip-path-2)">
      <path id="Trazado_7984" data-name="Trazado 7984" d="M86.282,1150.5l-.893-.447a51.624,51.624,0,0,0,3.818,6.289,5.56,5.56,0,0,1-.324-1.811,4.372,4.372,0,0,0-2.6-4.032" transform="translate(-79.806 -1074.868)" fill="#002f87"/>
      <path id="Trazado_7985" data-name="Trazado 7985" d="M166.936,1277.248c-.188-.25-.386-.494-.589-.734.194.247.391.491.589.734" transform="translate(-155.471 -1193.057)" fill="#002f87"/>
      <path id="Trazado_7986" data-name="Trazado 7986" d="M1008.165,1316.341a6.77,6.77,0,0,0,1.019-.93,1.837,1.837,0,0,0-.235-2.5c-.642-.57-1.2-.518-2.019.239a10.255,10.255,0,0,0-1.547,1.706,4.781,4.781,0,0,1-5.3,2.125c-1.13-.219-2.275-.387-3.391-.663a2.882,2.882,0,0,0-2.818.839c-1.957,1.736-3.072,4.014-4.248,6.259a3.11,3.11,0,0,0-.128,2.472,5.587,5.587,0,0,1,.265,2.313q1.6-.435,3.167-.969c.011-.3.015-.6,0-.9a10.344,10.344,0,0,1,.294-2.515c.6-2.994,2.27-4.312,5.342-4.286.308,0,.616,0,.923.014,2.1.08,3.286,1.064,3.6,2.914q1.256-.767,2.462-1.605c-.086-1.775.745-3.062,2.612-4.514" transform="translate(-924.625 -1226.72)" fill="#002f87"/>
      <path id="Trazado_7987" data-name="Trazado 7987" d="M885.774,1515.736a1.971,1.971,0,0,0-2.087.117,3.594,3.594,0,0,0-1.737,2.081q-.172.706-.362,1.409,2.209-.259,4.36-.7a3.4,3.4,0,0,0,.288-1.234c.017-.6.193-1.308-.463-1.676" transform="translate(-823.951 -1416.409)" fill="#002f87"/>
      <path id="Trazado_7988" data-name="Trazado 7988" d="M1094.708,1459.775a2.417,2.417,0,0,0-2.592.8,3.713,3.713,0,0,0-.677,2.283c0,.243-.015.485-.028.726q2.221-.922,4.332-2.041a1.745,1.745,0,0,0-1.035-1.767" transform="translate(-1020.055 -1364.222)" fill="#002f87"/>
      <path id="Trazado_7989" data-name="Trazado 7989" d="M1150.361,212.373a40.623,40.623,0,0,0-3.784,2.21c-1.869,1.354-3.221,2.947-2.847,5.493a6.947,6.947,0,0,1-.888,4.226,7.018,7.018,0,0,0-.57,1.751c-.13.6-.107,1.222.467,1.537a1.458,1.458,0,0,0,1.715-.245,5.59,5.59,0,0,0,1.488-2.028,3.578,3.578,0,0,1,1.409-1.922c2.34-1.232,4.644-2.59,7.414-2.6a2.764,2.764,0,0,0,2.1-.768,49.2,49.2,0,0,0,3.585-3.965q-.981-1.309-2.044-2.551a9.389,9.389,0,0,1-5.162,4.2,10.346,10.346,0,0,0-4.237,2.246,1.59,1.59,0,0,1-.921.451c-.717.084-1.4.063-1.8-.689a1.655,1.655,0,0,1,.415-1.994,3.111,3.111,0,0,1,.762-.51c1.355-.643,2.687-1.35,4.087-1.876a9.361,9.361,0,0,0,4.868-4.028q-1.117-1.168-2.307-2.263c-.044.056-.086.113-.13.169a12.409,12.409,0,0,1-3.624,3.16" transform="translate(-1067.531 -195.377)" fill="#002f87"/>
      <path id="Trazado_7990" data-name="Trazado 7990" d="M703.437,152.985a26.981,26.981,0,0,0-5.692,5.025,12.694,12.694,0,0,1-3.457,2.824,10.577,10.577,0,0,0-4.987,5.825,36.865,36.865,0,0,1-1.468,3.634,5.943,5.943,0,0,1-3.625,3.337c-.84.273-1.667.583-2.517.831a13.456,13.456,0,0,0-3.476,1.52,2.713,2.713,0,0,0-1.338,2.728,4.924,4.924,0,0,1-1.666,4.347c-.433.38-.829.8-1.237,1.21a1.835,1.835,0,0,0-.612,1.328c.016,1.8-.049,3.609.1,5.4a18.388,18.388,0,0,1-.659,7.067,34.433,34.433,0,0,1-2.407,5.737,7.975,7.975,0,0,0-.862,2.616,1.885,1.885,0,0,0,.869,1.979,1.718,1.718,0,0,0,2.061-.559,4.979,4.979,0,0,0,1.059-1.771c.308-.951.609-1.9.908-2.858a32.995,32.995,0,0,1,1.884-5.8,5.2,5.2,0,0,0,.457-3.79,11.921,11.921,0,0,1,.686-7.572,70.182,70.182,0,0,1,4.57-9.052,1.752,1.752,0,0,1,2.451-.777,1.7,1.7,0,0,1,.227,2.557c-1.759,1.832-2.563,4.181-3.668,6.366a15.9,15.9,0,0,0-1.673,7.468,1.68,1.68,0,0,0,1.039,1.765,2.168,2.168,0,0,0,2.3-.685,2.4,2.4,0,0,0,.516-1.609c.03-.921-.036-1.841.065-2.766a17.75,17.75,0,0,1,2.5-6.4,16.948,16.948,0,0,0,1.811-4.835,10.422,10.422,0,0,1,2.239-4.993,9.74,9.74,0,0,0,1.723-3.113c.638-1.773,1.287-3.541,1.922-5.315a2.772,2.772,0,0,1,.634-1.083,1.386,1.386,0,0,1,1.573-.4,1.41,1.41,0,0,1,.991,1.4,2.474,2.474,0,0,1-.472,1.513,10.531,10.531,0,0,0-1.506,3.6,12.445,12.445,0,0,1-2.387,4.95,9.961,9.961,0,0,0-1.919,3.9,31.993,31.993,0,0,1-2.789,7.065,10.444,10.444,0,0,0-1.35,5.649,8.069,8.069,0,0,1-.482,3.176,3.656,3.656,0,0,1-3.821,2.524c-2.179-.31-2.827.087-3.429,2.214-.482,1.7-.937,3.412-1.342,5.133A10.3,10.3,0,0,1,673.8,210.3a3.745,3.745,0,0,0-1.174,2.544c-.434,2.715.36,5.439-.156,8.158a1.683,1.683,0,0,0,1.569,1.82c1.07.163,1.537-.118,1.895-1.2a6.5,6.5,0,0,0,0-5.157,4,4,0,0,1,.471-4.151,10.273,10.273,0,0,1,1.22-1.531,9.662,9.662,0,0,0,2.551-4.7c.392-1.763.765-3.53,1.15-5.295a3.29,3.29,0,0,1,.6-1.479,1.412,1.412,0,0,1,2.51.3,2.257,2.257,0,0,1-.06,2.008,13.412,13.412,0,0,0-1.019,3.533,12.106,12.106,0,0,1-3.852,7.787,3.319,3.319,0,0,0-.928,1.7c-.345,1.3.381,2.143,1.72,1.962a3.633,3.633,0,0,0,2.6-1.758,33.587,33.587,0,0,0,2.942-5.606c1-2.538.988-5.269,1.268-7.937a12.84,12.84,0,0,1,1-4.47,12.523,12.523,0,0,0,1.534-5.387,13.36,13.36,0,0,1,1.173-5.254c.837-1.9,1.586-3.836,2.279-5.8a15.071,15.071,0,0,1,3.4-5.831,3.825,3.825,0,0,0,1.256-3.317,4.8,4.8,0,0,1,.361-2.488,13.1,13.1,0,0,0,1.006-6.086,4.527,4.527,0,0,1,1.148-3.178,17.681,17.681,0,0,1,4.641-3.925c1.441-.888,3.067-1.591,4.161-2.874q.53-.622,1.063-1.243-1.25-1.03-2.567-1.98a24.569,24.569,0,0,1-4.126,3.522" transform="translate(-625.737 -139.691)" fill="#002f87"/>
      <path id="Trazado_7991" data-name="Trazado 7991" d="M1575.274,789.122c.14-1.551.216-3.121.216-4.709,0-.126,0-.251,0-.376,0,.041-.005.08-.012.122a30,30,0,0,0-.2,4.964" transform="translate(-1472.269 -732.778)" fill="#002f87"/>
      <path id="Trazado_7992" data-name="Trazado 7992" d="M1430.286,701.135a7.485,7.485,0,0,0-3.068,6.278,34.806,34.806,0,0,1-.2,5.181,7.012,7.012,0,0,1-1.185,3.334,8.032,8.032,0,0,0-1.616,5.738,13.087,13.087,0,0,1-.77,5.442,7.325,7.325,0,0,0-.182,4.208,16.838,16.838,0,0,1,.294,5.215,51.734,51.734,0,0,0,2.941-4.591,3.928,3.928,0,0,1-.03-2.588,19.974,19.974,0,0,0,.669-7.421,5.264,5.264,0,0,1,1.962-4.687,2.837,2.837,0,0,0,1.071-2.538c-.141-2.877.183-5.763-.173-8.641a1.729,1.729,0,0,1,.941-1.838,1.383,1.383,0,0,1,1.61.2,1.747,1.747,0,0,1,.662,1.17q-.036-2.237-.255-4.426c-.106-.077-.214-.152-.325-.225a1.853,1.853,0,0,0-2.345.184" transform="translate(-1330.001 -654.81)" fill="#002f87"/>
      <path id="Trazado_7993" data-name="Trazado 7993" d="M1099.559,441.062a5.932,5.932,0,0,0,.186,3.937,3.816,3.816,0,0,1-.919,4.354c-.743.725-1.462,1.475-2.219,2.185a4.833,4.833,0,0,0-1.5,3.031c-.343,2.7-.6,5.419-1.135,8.1-.642,3.234-1.941,6-5.187,7.413a7.128,7.128,0,0,0-3.9,3.9,5.312,5.312,0,0,1-3.99,3.469,2.7,2.7,0,0,0-2.1,2.069,15.821,15.821,0,0,1-2.573,5,19.589,19.589,0,0,0-2.737,4.8c-.892,2.33-.208,4.113,2.281,4.449.722.1,1.437.255,2.155.389a3.665,3.665,0,0,0,4.038-1.539,6.9,6.9,0,0,1,2.548-2.284,3.548,3.548,0,0,0,1.831-2.388c.369-1.372.847-2.715,1.269-4.073a2.753,2.753,0,0,1,.908-1.438,1.439,1.439,0,0,1,1.814-.13,1.543,1.543,0,0,1,.748,1.678,4.1,4.1,0,0,1-.568,1.379,12.383,12.383,0,0,0-1.5,3.729c-.4,1.66.822,4.217,2.43,4.785.141.05.283.1.425.143q.891-.932,1.735-1.908a1.723,1.723,0,0,1-.847-1.285,2.4,2.4,0,0,1,.189-1.469,9.2,9.2,0,0,0,.356-6.322,7.8,7.8,0,0,1,.431-5.17,9.215,9.215,0,0,0,.6-4.53,9.328,9.328,0,0,1,1.64-6.435c1.248-1.77,1.3-3.908,1.348-5.987a18.035,18.035,0,0,1,.945-6,6.4,6.4,0,0,1,2.735-3.468,3.67,3.67,0,0,0,2.093-4.174c-.4-2.149.007-4.293.014-6.439,0-.016,0-.033,0-.049a51.364,51.364,0,0,0-2.423-5.625,6.167,6.167,0,0,0-.718,2.961,10.48,10.48,0,0,1-.41,2.959m-8.445,30.833a1.543,1.543,0,0,1,.985,1.483,4.177,4.177,0,0,1-.138.628c-.132.359-.326.7-.449,1.058a11.06,11.06,0,0,1-5.614,6.4,5.254,5.254,0,0,0-2.419,3.257,9.312,9.312,0,0,1-2.5,4.211,10.739,10.739,0,0,0-1.205,1.54,3.135,3.135,0,0,1-1.024.912,1.561,1.561,0,0,1-2.1-.194,1.863,1.863,0,0,1,.03-2.242,3.448,3.448,0,0,1,.743-.72,7.876,7.876,0,0,0,3.154-4.281,8.4,8.4,0,0,1,4.119-5.048,7.482,7.482,0,0,0,4.118-5.516,2.187,2.187,0,0,1,.594-1.1,1.527,1.527,0,0,1,1.7-.382" transform="translate(-1002.954 -406.693)" fill="#002f87"/>
      <path id="Trazado_7994" data-name="Trazado 7994" d="M47.26,440.61a15.857,15.857,0,0,1,3.527,3.122,23.067,23.067,0,0,1,3.088,6.034,5.855,5.855,0,0,1,.217,3.409,3.6,3.6,0,0,0,.627,3.059,29.373,29.373,0,0,1,2.789,5.171,11.829,11.829,0,0,1,1.1,5.26c-.03,1.577,0,3.155-.035,4.731a6.617,6.617,0,0,0,.782,3.333c.907,1.693,1.932,3.32,2.788,5.045a4.021,4.021,0,0,0,1.647,1.579,11.711,11.711,0,0,1,1.166.745c2.3,1.745,2.51,4.144.566,6.265a13.238,13.238,0,0,1-3.2,2.628,3.49,3.49,0,0,0-1.9,2.93q1.486,1.078,3.049,2.051c.129-.26.253-.524.363-.8a10,10,0,0,1,2.585-3.639,6.235,6.235,0,0,0,.95-1c1.94-2.809,4.757-3.461,7.917-3.215a3.531,3.531,0,0,1,3.533,3.211c.366,2.2.169,3.721-1.889,4.846-.81.442-1.665.8-2.47,1.252a4.7,4.7,0,0,0-2.721,3.518q1.633.646,3.319,1.18a4.6,4.6,0,0,1,3.183-3.4,10.965,10.965,0,0,1,1.333-.368,2.466,2.466,0,0,0,1.938-1.776,15.324,15.324,0,0,1,.968-2.343,1.959,1.959,0,0,0-.411-2.519,3.719,3.719,0,0,1-.93-1.305,1.606,1.606,0,0,1,.52-1.954,1.5,1.5,0,0,1,2,.145,4.236,4.236,0,0,1,1.047,1.638,2.232,2.232,0,0,0,1.781,1.474,5.371,5.371,0,0,1,3.729,2.069,2.071,2.071,0,0,0,2.387.707,10.676,10.676,0,0,0,4.873-2.732c1.747-1.882,1.584-3.423-.536-4.868a5.668,5.668,0,0,1-1.642-1.43,2.026,2.026,0,0,1,.341-2.958c.939-.56,2.082-.028,2.66,1.243.111.245.2.5.3.751a2.766,2.766,0,0,0,.705,1.042,1.381,1.381,0,0,0,2.13-.038,1.689,1.689,0,0,0,.145-2.222,4.154,4.154,0,0,1,.21-4.576c.361-.544.7-1.11,1.1-1.621,2.276-2.872,3.721-6,3.187-9.79a4.986,4.986,0,0,1,0-.807,16,16,0,0,1,2.636-8.709,4.1,4.1,0,0,0,.671-3.595,5.047,5.047,0,0,1,.076-3.284c1.023-2.613,2.036-5.23,3.11-7.822a6.329,6.329,0,0,1,4.162-3.721,9.2,9.2,0,0,0,5.018-3.671,7.121,7.121,0,0,1,3.71-2.789,3.827,3.827,0,0,0,1.739-1.09,1.571,1.571,0,0,0,.435-1.788,1.341,1.341,0,0,0-1.677-.685c-2.556.664-5.129,1.406-6.416,4.023a5.117,5.117,0,0,1-5.19,3.086,2,2,0,0,0-1.709.807,20.484,20.484,0,0,0-3.251,5.147q-1.148,3.019-2.359,6.013a12.164,12.164,0,0,0-.925,3.786,14.6,14.6,0,0,1-1.355,6.137,11.953,11.953,0,0,0-1.434,5.181c-.065,1.455-.267,2.9-.388,4.358a11.854,11.854,0,0,1-1.2,4.657c-.845,1.6-1.741,3.17-2.528,4.8a5.3,5.3,0,0,1-4.828,3.186,1.978,1.978,0,0,0-1.953,1.638,16.151,16.151,0,0,1-.794,2.283c-.726,1.629-.271,2.714,1.395,3.4a4.737,4.737,0,0,1,1.423.744,1.673,1.673,0,0,1-1.632,2.879,3.067,3.067,0,0,1-1.462-.892,17.29,17.29,0,0,0-5.513-4.073,4.1,4.1,0,0,0-3.617-.33,3.827,3.827,0,0,1-4.021-.546,3.716,3.716,0,0,0-3.28-.565c-.826.18-1.646.4-2.482.523a3.088,3.088,0,0,1-3.759-2.4,4.452,4.452,0,0,1-.188-.666,3.846,3.846,0,0,0-2.065-2.759,5.472,5.472,0,0,1-1.929-1.614,17.489,17.489,0,0,1-2.534-5.776,31.075,31.075,0,0,1-.2-6.443,11.053,11.053,0,0,0-1.523-5.6,18.285,18.285,0,0,1-2.565-6.388,35.357,35.357,0,0,0-1.963-7.1,10.612,10.612,0,0,0-2.907-4.9c-.741-.611-1.512-1.187-2.286-1.756a21.882,21.882,0,0,1-6.8-7.257,5.01,5.01,0,0,0-.383-.605q-.788,1.811-1.439,3.691a18.46,18.46,0,0,0,5.354,5.409" transform="translate(-39.166 -400.457)" fill="#002f87"/>
      <path id="Trazado_7995" data-name="Trazado 7995" d="M728.317,15.493a78.971,78.971,0,0,1-5.262,5.959A6.587,6.587,0,0,1,720.924,23a3.156,3.156,0,0,0-2.031,2.716c-.088.724-.2,1.449-.227,2.177-.042,1.027.527,1.548,1.558,1.554a2.177,2.177,0,0,0,2.146-1.759,11.543,11.543,0,0,1,3.036-4.56,34.157,34.157,0,0,0,5.056-5.518,9.11,9.11,0,0,1,4.667-3.593,9.273,9.273,0,0,0,4.521-3.456q-1.548-.518-3.14-.939l-.135.3a7.808,7.808,0,0,1-.606,1.238,1.479,1.479,0,0,1-2.015.545,1.544,1.544,0,0,1-.695-2.067,6.016,6.016,0,0,1,.4-.727q-1.24-.249-2.5-.438a23.877,23.877,0,0,0-.639,2.666,9.4,9.4,0,0,1-2,4.355" transform="translate(-671.679 -7.919)" fill="#002f87"/>
      <path id="Trazado_7996" data-name="Trazado 7996" d="M613.961,60.579a12.059,12.059,0,0,0-4.693,3.637,30.032,30.032,0,0,1-3.626,4.019,18.31,18.31,0,0,0-4.429,6.116c-1,2.185-2.2,2.808-4.526,2.376-2.857-.53-4.994.8-6.9,2.6-.77.726-1.416,1.613-2.19,2.361a2.071,2.071,0,0,0-.724,1.632,5.27,5.27,0,0,0,1.986,4,1.4,1.4,0,0,0,1.612.255,1.582,1.582,0,0,0,.854-1.635c-.046-.532-.216-1.053-.312-1.582a2.986,2.986,0,0,1,1.525-3.43,7.134,7.134,0,0,1,2.035-.79,17.233,17.233,0,0,1,4.021-.2,5.365,5.365,0,0,0,4.948-3.011c.289-.542.541-1.105.788-1.668a17.3,17.3,0,0,1,2.618-4.05c1.726-2.082,3.892-3.713,5.716-5.691a9.561,9.561,0,0,1,1.682-1.4,45.945,45.945,0,0,0,8-6.67q-1.516-.726-3.085-1.354l-.062.079a13.686,13.686,0,0,1-5.238,4.4" transform="translate(-548.5 -52.434)" fill="#002f87"/>
      <path id="Trazado_7997" data-name="Trazado 7997" d="M418.077,1374.89a5.325,5.325,0,0,0,2.184-1.245,1.514,1.514,0,0,0,.355-1.6,1.37,1.37,0,0,0-1.284-1,4.354,4.354,0,0,0-3.115.567,14.948,14.948,0,0,0-5.186,5.906q-.187.426-.385.843,1.413.771,2.879,1.454a6.853,6.853,0,0,1,.877-1.915,7.143,7.143,0,0,1,3.673-3.015" transform="translate(-383.799 -1281.365)" fill="#002f87"/>
      <path id="Trazado_7998" data-name="Trazado 7998" d="M222.016,224.093c1.012,1,2.208,1.82,3.115,2.908a3.306,3.306,0,0,0,3.923.984,4.564,4.564,0,0,1,6.054,3.215,6.062,6.062,0,0,0,1.873,2.974,11.263,11.263,0,0,1,3.119,4.645,10.162,10.162,0,0,0,1.681,3.01,10.333,10.333,0,0,1,2.584,8.213,8.953,8.953,0,0,0-.01,1.153,12.037,12.037,0,0,1-.869,4.5,25.624,25.624,0,0,1-2.527,4.389,6.3,6.3,0,0,0-.739,4.225,2.147,2.147,0,0,0,1.6,1.774c1.082.17,1.91-.611,1.958-2.023a9.38,9.38,0,0,1,1.272-4.379,26.521,26.521,0,0,0,1.193-2.37,12.2,12.2,0,0,0,1.249-4.766c.031-2.846-.007-5.692.011-8.538a2.139,2.139,0,0,0-1.072-2.036,6.925,6.925,0,0,1-3.452-5.06,4.236,4.236,0,0,0-1.805-2.705,5.893,5.893,0,0,1-2.721-4.476,3.072,3.072,0,0,0-2.276-2.857,8.4,8.4,0,0,1-4.863-4.511,50.619,50.619,0,0,1-2.531-5.559,3.893,3.893,0,0,0-1.51-2.125,1.935,1.935,0,0,0-2.173-.182c-.749.438-.639,1.164-.569,1.852a4.382,4.382,0,0,0,.474,1.416,14.833,14.833,0,0,0,1.669,2.622,8.481,8.481,0,0,0,1.918,1.976,2.576,2.576,0,0,1,.686.768,1.551,1.551,0,0,1-.249,2.089,1.632,1.632,0,0,1-2.115-.092c-.941-.816-1.429-2-2.282-2.888a8.644,8.644,0,0,1-2.789-7.158,2.364,2.364,0,0,0-.877-1.93q-.929-.912-1.836-1.843-1.134,1.056-2.207,2.175a11.5,11.5,0,0,1,2.07,4.9,10.274,10.274,0,0,0,3.027,5.713" transform="translate(-202.737 -197.492)" fill="#002f87"/>
      <path id="Trazado_7999" data-name="Trazado 7999" d="M90.382,381.341c1.507,1.251,3.09,2.409,4.624,3.629a7.813,7.813,0,0,1,2.7,3.089,66.01,66.01,0,0,1,3.344,9.932,20.481,20.481,0,0,0,2.5,6.653,10.152,10.152,0,0,1,1.657,6.131,33.474,33.474,0,0,0,0,4.5,10.875,10.875,0,0,0,2.937,7.2c.825.825,1.493.991,2.135.6a2.2,2.2,0,0,0,.843-2.632,6.787,6.787,0,0,0-1.262-1.915,7.948,7.948,0,0,1-1.566-4.016,29.537,29.537,0,0,1,.222-6.423c.1-1.129.2-2.236-.816-3.074a7.073,7.073,0,0,1-2.386-4.6,20.061,20.061,0,0,0-1.419-4.857,47.3,47.3,0,0,1-3.479-10.118,2.4,2.4,0,0,0-1.7-1.873,8.373,8.373,0,0,1-2.654-1.367,31.346,31.346,0,0,1-6.8-7.154,9.881,9.881,0,0,1-1.744-4.187q-1.172,1.87-2.189,3.843a6.387,6.387,0,0,1,.942,1.27,18.757,18.757,0,0,0,4.112,5.376" transform="translate(-79.75 -346.606)" fill="#002f87"/>
      <path id="Trazado_8000" data-name="Trazado 8000" d="M1132.808,356.6a3.182,3.182,0,0,0-1.058,3.306c.469,2.147-.1,3.2-2.026,4.267-.3.168-.623.3-.937.447a8.507,8.507,0,0,0-3.679,2.868,8.9,8.9,0,0,1-3.427,3.013c-.652.326-1.324.618-2,.885a6.44,6.44,0,0,0-3.786,3.947c-.65,1.726-1.229,3.479-2,5.161a5.111,5.111,0,0,0-.513,2.234c.034,1.519,1.162,2.135,2.442,1.316a3.452,3.452,0,0,0,1.564-2.2c.117-.524.2-1.057.278-1.589.457-3.219,1.814-5.814,5.063-6.968a11.449,11.449,0,0,0,5.554-4.481,5.851,5.851,0,0,1,3.824-2.369c1.886-.37,2.153-.639,2.442-2.5a14.093,14.093,0,0,0,.186-1.6,9.315,9.315,0,0,1,2.073-5.834q-.746-1.279-1.563-2.511a31.144,31.144,0,0,1-2.434,2.606" transform="translate(-1040.588 -330.849)" fill="#002f87"/>
      <path id="Trazado_8001" data-name="Trazado 8001" d="M504.679,36.227c1.8,2.587,3.553,5.206,5.292,7.835a14.648,14.648,0,0,1,1.094,2.285,5.38,5.38,0,0,1-.182,4.99,3.184,3.184,0,0,0-.41,1.77,1.26,1.26,0,0,0,1.139,1.252,2.681,2.681,0,0,0,2.955-2.481,20.824,20.824,0,0,1,.2-3.906,3.275,3.275,0,0,0-.713-2.811,5.087,5.087,0,0,1-1.1-2.51,3.262,3.262,0,0,0-1.3-2.237,11.051,11.051,0,0,1-3.531-4.89,7.424,7.424,0,0,0-1.285-2.024q-1.876.568-3.691,1.271a5.155,5.155,0,0,1,1.525,1.456" transform="translate(-470.258 -31.31)" fill="#002f87"/>
      <path id="Trazado_8002" data-name="Trazado 8002" d="M609.772,6.893a1.715,1.715,0,0,0,2.207.345c2.036-1.259,3.8-2.8,4.51-5.189a9.592,9.592,0,0,0,.4-1.949q-1.909.057-3.783.248a6.007,6.007,0,0,1,.232,2.1,1.745,1.745,0,0,1-1.526,1.62,1.621,1.621,0,0,1-1.621-1.214,3.353,3.353,0,0,1-.171-1.135,5.812,5.812,0,0,0-.081-.944q-1.72.285-3.4.681a8.492,8.492,0,0,1,.622,1.27,10.377,10.377,0,0,0,2.614,4.165" transform="translate(-566.882 -0.093)" fill="#002f87"/>
      <path id="Trazado_8003" data-name="Trazado 8003" d="M2.45,694.19c.086.254.126.524.208.779q.612,1.923,1.236,3.842a6.308,6.308,0,0,0,3.184,3.641c1.015.547,2.064,1.03,3.093,1.553a4.692,4.692,0,0,1,1.926,1.433c2.045,3.09,3.257,6.36,1.991,10.111a3.041,3.041,0,0,0,.013,2.474,46.139,46.139,0,0,1,2.85,7.3,3.711,3.711,0,0,0,1.138,1.707,2.181,2.181,0,0,0,2.855-.071,1.827,1.827,0,0,0,.147-2.419c-.444-.719-.956-1.4-1.411-2.11a12.391,12.391,0,0,1-2.037-8.885,11.874,11.874,0,0,0-.464-5.357,30.889,30.889,0,0,0-2.809-5.673,2.741,2.741,0,0,0-2.535-1.491,5.024,5.024,0,0,1-4.893-3.543,10.091,10.091,0,0,1-.508-1.53,7.529,7.529,0,0,0-4.2-5.321c-.256-.135-.514-.268-.772-.4q-.146,1.162-.239,2.34c.533.182.925.714,1.233,1.628" transform="translate(-1.137 -645.096)" fill="#002f87"/>
      <path id="Trazado_8004" data-name="Trazado 8004" d="M28.323,997.771a4.372,4.372,0,0,1,2.6,4.032,5.555,5.555,0,0,0,.324,1.81q.714,1.007,1.475,1.979c.2.24.4.484.589.734a51.96,51.96,0,0,0,3.62,4.012,8.9,8.9,0,0,1,3.493.583,2.565,2.565,0,0,0,2.14-.038,12.476,12.476,0,0,0,3.373-2.582,1.845,1.845,0,0,0-1.448-2.991c-.86-.017-1.3.548-1.8,1.086a3.333,3.333,0,0,1-4.748.609,7.42,7.42,0,0,1-2.929-3.617c-.747-1.852-1.41-3.741-2.037-5.638a3.649,3.649,0,0,0-3.374-2.811,3.789,3.789,0,0,1-3.1-1.95,5.563,5.563,0,0,1-.771-2.4,4.8,4.8,0,0,0-2.357-3.952,51.29,51.29,0,0,0,4.054,10.684q.446.224.893.447" transform="translate(-21.848 -922.135)" fill="#002f87"/>
      <path id="Trazado_8005" data-name="Trazado 8005" d="M155.485,287.532a31.169,31.169,0,0,0,4.55,4.719,11.171,11.171,0,0,0,2.3,1.723c.966.481,1.707.414,2.189-.217a1.68,1.68,0,0,0-.371-2.262,12.305,12.305,0,0,0-1.573-1.163,14.784,14.784,0,0,1-6.314-9.424,9.283,9.283,0,0,0-1.147-3.113q-1.164,1.366-2.233,2.812a11.785,11.785,0,0,1,.524,2.228,10.126,10.126,0,0,0,2.074,4.7" transform="translate(-142.891 -259.632)" fill="#002f87"/>
      <path id="Trazado_8006" data-name="Trazado 8006" d="M15.4,590.938a8.834,8.834,0,0,1,3.949,5.6,10.806,10.806,0,0,0,.7,1.949,2.642,2.642,0,0,0,1.931,1.5,1.166,1.166,0,0,0,1.575-1.051,4.74,4.74,0,0,0-.337-2.485,15.937,15.937,0,0,0-6.21-7.943,15.5,15.5,0,0,1-3.98-3.521q-.508,1.9-.873,3.848a12.933,12.933,0,0,0,1.5.983c.6.341,1.172.735,1.75,1.116" transform="translate(-11.358 -546.745)" fill="#002f87"/>
      <path id="Trazado_8007" data-name="Trazado 8007" d="M4.626,844.21a4.416,4.416,0,0,1,1.9,3.033c.1.566.154,1.14.248,1.708a2.591,2.591,0,0,0,1.605,2.214c1.223.483,2.068,0,2.19-1.3a7.123,7.123,0,0,0,.007-1.5c-.354-2.964-1.366-5.5-4.366-6.792a24.979,24.979,0,0,1-2.518-1.39A7.9,7.9,0,0,1,0,835.54a51.755,51.755,0,0,0,.752,6.329,13.067,13.067,0,0,0,1.438.814,20.17,20.17,0,0,1,2.436,1.527" transform="translate(0 -780.913)" fill="#002f87"/>
      <path id="Trazado_8008" data-name="Trazado 8008" d="M373.1,87.353a15.176,15.176,0,0,1,3.923,7.452,4.545,4.545,0,0,0,.475,1.534c.4.688.913,1.265,1.832,1.124.73-.112,1.23-.824,1.325-1.806a6.464,6.464,0,0,0-.951-4.074c-1.272-2.11-2.769-4.073-4.033-6.182a5.407,5.407,0,0,0-4.788-2.868,51.567,51.567,0,0,0-4.576,2.583,7.852,7.852,0,0,0,2.781.441,5.26,5.26,0,0,1,4.01,1.8" transform="translate(-342.363 -77.137)" fill="#002f87"/>
      <path id="Trazado_8009" data-name="Trazado 8009" d="M287.2,156.648c2.914-.507,4.506.354,5.681,3.08.563,1.306,1.074,2.635,1.585,3.962a9.992,9.992,0,0,0,4.815,5.655,2.746,2.746,0,0,0,4.154-1.42,1.527,1.527,0,0,0-1.5-2.343c-.5-.014-1,.012-1.5,0a2.743,2.743,0,0,1-2.6-1.59,17.682,17.682,0,0,1-.971-2.341c-.4-1.2-.766-2.425-1.266-3.587-1.132-2.629-2.786-4.527-6-4.553a7.349,7.349,0,0,1-3.941-1.159q-1.3.953-2.537,1.984c.485.5.97,1,1.463,1.487a2.771,2.771,0,0,0,2.617.821" transform="translate(-264.613 -142.395)" fill="#002f87"/>
      <path id="Trazado_8010" data-name="Trazado 8010" d="M688.871,1428.508c-.9-.3-1.561-.159-1.961.686-.657,1.388-1.249,2.831-.664,4.428a7.5,7.5,0,0,1,.245,4.271q1.476.178,2.976.271c.344-1.969.4-3.99,1.214-5.881.777-1.813.078-3.143-1.81-3.774" transform="translate(-641.157 -1334.978)" fill="#002f87"/>
      <path id="Trazado_8011" data-name="Trazado 8011" d="M596.754,1522.391c-.075-1.128-.732-1.549-1.812-1.2a3.057,3.057,0,0,0-2.1,2.125q1.845.47,3.74.807c.034-.119.069-.238.105-.356a3.9,3.9,0,0,0,.071-1.375" transform="translate(-554.079 -1421.625)" fill="#002f87"/>
      <path id="Trazado_8012" data-name="Trazado 8012" d="M1003.84,598.462a7.834,7.834,0,0,1-2.254.442,2.354,2.354,0,0,0-1.935,1.264,16.285,16.285,0,0,0-2.43,10.7,8.52,8.52,0,0,1-1.283,5.6c-.891,1.488-1.892,2.9-2.9,4.3a4.363,4.363,0,0,0-.686,3.3,1.43,1.43,0,0,0,1.8,1.316c.866-.109,1.222-.729,1.484-1.435a15.9,15.9,0,0,1,2-4.141,26.769,26.769,0,0,0,2.957-5.2,4.071,4.071,0,0,0,.038-3.553,5.2,5.2,0,0,1-.555-2.467c.274-3.1,1.228-5.783,4.361-7.153.422-.185.825-.415,1.242-.612a7.184,7.184,0,0,0,4.339-5.443,43.369,43.369,0,0,1,1.27-4.908,1.675,1.675,0,0,1,2.237-1.255,1.657,1.657,0,0,1,.675,2.452,15.978,15.978,0,0,0-1.557,5.037,7.836,7.836,0,0,1-3.163,5.048c-1.26.895-2.647,1.564-3.926,2.417a5.265,5.265,0,0,0-2.593,5.28,1.614,1.614,0,0,0,.989,1.445,1.485,1.485,0,0,0,1.567-.465,4.3,4.3,0,0,0,1.2-1.672,8.484,8.484,0,0,1,3.883-4.265c.569-.32,1.117-.679,1.667-1.031a6.765,6.765,0,0,0,3.068-4.3,43.437,43.437,0,0,0,1.4-8.516,7,7,0,0,1,3.09-5.766A6.28,6.28,0,0,0,1021,583.8a2.522,2.522,0,0,0,.569-1.935c-.082-.887-.451-1.217-1.354-1.178a2.9,2.9,0,0,0-1.856.835,7.48,7.48,0,0,0-1.516,1.573c-1.342,2.316-3.459,3.508-5.864,4.394a5.117,5.117,0,0,0-3.43,4.019c-.171.867-.28,1.748-.5,2.6-.473,1.881-1.216,3.584-3.216,4.351" transform="translate(-927.409 -542.718)" fill="#002f87"/>
      <path id="Trazado_8013" data-name="Trazado 8013" d="M792.146,1312.369a2.394,2.394,0,0,0,2-1.359c.337-.691.694-1.373,1.016-2.071a9.892,9.892,0,0,1,3.386-4.424,5.356,5.356,0,0,0,.83-.8,1.469,1.469,0,0,0,.255-1.714,1.592,1.592,0,0,0-1.483-1.094,3.3,3.3,0,0,0-1.973.516,5.6,5.6,0,0,0-2.591,3.529,7.235,7.235,0,0,1-3.6,4.841,20.605,20.605,0,0,1-4.218,1.834,2.693,2.693,0,0,0-1.945,2.073q-.625,2.712-1.174,5.439c.133,0,.265,0,.4,0,1,0,1.983-.031,2.964-.086q.168-.721.324-1.446c.733-3.427,2.3-4.778,5.817-5.243" transform="translate(-731.475 -1215.855)" fill="#002f87"/>
      <path id="Trazado_8014" data-name="Trazado 8014" d="M721.12,100.37c-3.194,2.938-6.83,5.346-10,8.335-2.5,2.352-4.78,4.752-6.016,8.027a7.182,7.182,0,0,1-4.5,4.34,8.762,8.762,0,0,1-5.109.633,3.627,3.627,0,0,0-1.871.317,1.763,1.763,0,0,0-.687,2.554c.83,1.142,3.416,1.871,4.624,1.11a27.736,27.736,0,0,1,6.357-2.668,5.439,5.439,0,0,0,3.387-3.25c.253-.6.463-1.223.7-1.83.859-2.162,1.833-4.32,3.689-5.771a70.136,70.136,0,0,0,7.959-6.81,2,2,0,0,1,.185-.137c2.3-1.919,4.749-3.68,6.893-5.781q-1.412-.9-2.888-1.716c-.891.9-1.79,1.79-2.721,2.647" transform="translate(-647.342 -91.334)" fill="#002f87"/>
      <path id="Trazado_8015" data-name="Trazado 8015" d="M456.622,620.657a1.229,1.229,0,0,0-.185.137,1.736,1.736,0,0,0-.743,2.015,2.195,2.195,0,0,0,1.968,1.356c2.333-.273,3.107-.8,3.462-2.794a28.509,28.509,0,0,0,.45-5.153A4.847,4.847,0,0,0,460,612.407a4.925,4.925,0,0,1-1.508-2.793,8.234,8.234,0,0,1,1.243-6.057c.422-.687.938-1.314,1.384-1.987a11.754,11.754,0,0,0-.056-12.223,35.969,35.969,0,0,1-2.959-5.337,8.666,8.666,0,0,0-1.716-2.711c-.575-.56-1.163-.906-1.943-.477a1.914,1.914,0,0,0-.788,2.02,5.76,5.76,0,0,0,.805,1.778c1.445,2.273,2.664,4.674,3.927,7.049a9.462,9.462,0,0,1,1.056,3.16c.294,2.165.239,4.383-1.646,5.812a5.3,5.3,0,0,0-2.329,4.435c-.091,3.221-.649,6.494,1.854,9.181a3.879,3.879,0,0,1,.48.786c1.177,2.122,1.259,4.477-1.183,5.616" transform="translate(-423.956 -542.668)" fill="#002f87"/>
      <path id="Trazado_8016" data-name="Trazado 8016" d="M365.725,529.3a3.8,3.8,0,0,0,.638-2.848,23.5,23.5,0,0,0-2.882-6.747,41.34,41.34,0,0,1-2.895-6.007c-.67-1.965-.251-3.007,1.536-3.841,1.073-.5,1.485-1.091,1.324-1.9a2.226,2.226,0,0,0-1.965-1.519c-2.567-.223-4.4,1.445-4.414,4.212a7.633,7.633,0,0,0,.212,1.614,36.887,36.887,0,0,0,3.137,8.637,17.147,17.147,0,0,1,1.81,5.556,6.093,6.093,0,0,0,.886,2.829,1.448,1.448,0,0,0,2.613.009" transform="translate(-333.721 -473.312)" fill="#002f87"/>
      <path id="Trazado_8017" data-name="Trazado 8017" d="M697.338,9.031a1.928,1.928,0,0,0-1.352,1.874,1.932,1.932,0,0,0,.986,1.9,1.716,1.716,0,0,0,2.085-.516c.986-.972,1.9-2.026,2.94-2.932,2.846-2.479,4-5.773,5.012-9.139C705.828.1,704.635.03,703.432,0a5.8,5.8,0,0,1-.146,1.144c-.832,3.493-2.584,6.3-5.948,7.889" transform="translate(-650.483 0.002)" fill="#002f87"/>
      <path id="Trazado_8018" data-name="Trazado 8018" d="M1529,985.393a8.048,8.048,0,0,0,.035,1.839c.053.261.094.52.124.779a51.344,51.344,0,0,0,1.5-4.919c-.022,0-.044,0-.066,0-.9,0-1.552.92-1.6,2.306" transform="translate(-1429.003 -918.814)" fill="#002f87"/>
      <path id="Trazado_8019" data-name="Trazado 8019" d="M605.556,1073.419a3.664,3.664,0,0,0,.094.913,10.466,10.466,0,0,1-.5,6.548,5.091,5.091,0,0,0-.262,1,1.267,1.267,0,0,0,.111.895,3,3,0,0,0,2.985,1.037c1.015-.258,1.354-.8,1.4-2.074.03-.855-.216-1.675-.239-2.52a22.919,22.919,0,0,1,.357-5.273,1.817,1.817,0,0,0-1.961-2.419,1.772,1.772,0,0,0-1.984,1.892" transform="translate(-565.309 -1001.472)" fill="#002f87"/>
      <path id="Trazado_8020" data-name="Trazado 8020" d="M661.156,560.09c.319-.948.6-1.936-.252-2.8a1.274,1.274,0,0,0-.352-.29,9.626,9.626,0,0,0-2.66-.847c-1.485-.006-2.165.77-1.947,2.065a5.976,5.976,0,0,0,1.943,3.552,1.382,1.382,0,0,0,1.24.471,2.913,2.913,0,0,0,2.028-2.155" transform="translate(-613.022 -519.796)" fill="#002f87"/>
    </g>
  </g>
</svg>
