<svg xmlns="http://www.w3.org/2000/svg" width="74.131" height="29.416" viewBox="0 0 74.131 29.416">
  <g id="icon_ai27" data-name="icon ai27" transform="translate(-236.978 -5101.103)">
    <path id="Trazado_7687" data-name="Trazado 7687" d="M96.319,782.542H79.932V778l3.525-2.875,4.731-3.8c2.69-2.1,2.968-3.277,2.968-4.606,0-2.226-1.793-2.875-3.339-2.875-2.659,0-3.525,3.246-3.618,3.555l-4.761-1.175c.649-2.288,3.184-6.648,8.379-6.648,5.627,0,8.255,3.711,8.255,7.143,0,3.246-2.257,5.813-4.978,8.069-1.145.9-2.783,2.226-4.484,3.525h9.709Z" transform="translate(195.424 4341.534)" fill="#fff"/>
    <path id="Trazado_7688" data-name="Trazado 7688" d="M114.8,764.088,104,782.542H98.288L109.46,763.9H97.566v-4.332H114.8Z" transform="translate(196.313 4341.535)" fill="#fff"/>
    <rect id="Rectángulo_7021" data-name="Rectángulo 7021" width="4.965" height="22.973" transform="translate(264.498 5101.104)" fill="#fff"/>
    <path id="Trazado_7689" data-name="Trazado 7689" d="M48.626,782.542h-5.3l10.1-22.973h5l9.335,22.973h-5.27l-6.872-15.809Z" transform="translate(193.653 4341.534)" fill="#fff"/>
    <path id="Trazado_7690" data-name="Trazado 7690" d="M50.28,785.1a1.481,1.481,0,0,0-.947-.246h-.962v2.851h.394v-.868h.576a1.5,1.5,0,0,0,.934-.238.9.9,0,0,0,.3-.745.933.933,0,0,0-.291-.755M50,786.32a.81.81,0,0,1-.6.175h-.632v-1.288h.559a1.131,1.131,0,0,1,.625.135.532.532,0,0,1,.214.476.7.7,0,0,1-.165.5" transform="translate(193.9 4342.775)" fill="#fff"/>
    <path id="Trazado_7691" data-name="Trazado 7691" d="M52.781,786.638a.8.8,0,0,0,.6-.872.827.827,0,0,0-.272-.69,1.559,1.559,0,0,0-.936-.217H51.128v2.851h.394v-.994h.734l.706.994h.506l-.757-1.051Zm-.585-.27h-.673v-1.161h.686a1.064,1.064,0,0,1,.587.117.5.5,0,0,1,.179.44.581.581,0,0,1-.17.461.952.952,0,0,1-.609.144" transform="translate(194.035 4342.775)" fill="#fff"/>
    <path id="Trazado_7692" data-name="Trazado 7692" d="M54.456,786.45h1.416v-.34H54.456v-.886h1.577v-.365H54.061v2.851h2.023v-.365H54.456Z" transform="translate(194.179 4342.775)" fill="#fff"/>
    <path id="Trazado_7693" data-name="Trazado 7693" d="M57.66,784.859H56.7v2.85h.928a1.721,1.721,0,0,0,1.233-.387,1.4,1.4,0,0,0,.4-1.053,1.341,1.341,0,0,0-.41-1.037,1.722,1.722,0,0,0-1.186-.372m.895,2.217a1.244,1.244,0,0,1-.857.27h-.606v-2.13h.552c.806,0,1.215.359,1.215,1.067a1.013,1.013,0,0,1-.3.793" transform="translate(194.309 4342.775)" fill="#fff"/>
    <rect id="Rectángulo_7022" data-name="Rectángulo 7022" width="0.394" height="2.851" transform="translate(254.312 5127.634)" fill="#fff"/>
    <path id="Trazado_7694" data-name="Trazado 7694" d="M62.913,785.261a1.381,1.381,0,0,1,.377.257l.249-.272a1.438,1.438,0,0,0-1.077-.456,1.52,1.52,0,0,0-1.1.425,1.43,1.43,0,0,0-.434,1.063,1.413,1.413,0,0,0,.426,1.053,1.486,1.486,0,0,0,1.075.417,1.431,1.431,0,0,0,1.068-.467l-.252-.258a1.553,1.553,0,0,1-.365.252,1.114,1.114,0,0,1-.466.091,1.031,1.031,0,0,1-.753-.318,1.077,1.077,0,0,1-.318-.79,1.035,1.035,0,0,1,.32-.777,1.11,1.11,0,0,1,.789-.3,1.167,1.167,0,0,1,.463.085" transform="translate(194.516 4342.772)" fill="#fff"/>
    <path id="Trazado_7695" data-name="Trazado 7695" d="M64.7,787.71H65.1v-2.5h.9v-.353H63.807v.353h.9Z" transform="translate(194.657 4342.775)" fill="#fff"/>
    <rect id="Rectángulo_7023" data-name="Rectángulo 7023" width="0.394" height="2.851" transform="translate(261.297 5127.634)" fill="#fff"/>
    <path id="Trazado_7696" data-name="Trazado 7696" d="M67.856,784.859H67.41l1.146,2.851h.488l1.147-2.851h-.446l-.944,2.292Z" transform="translate(194.834 4342.775)" fill="#fff"/>
    <path id="Trazado_7697" data-name="Trazado 7697" d="M70.981,786.45H72.4v-.34H70.981v-.886h1.577v-.365H70.586v2.851h2.023v-.365H70.981Z" transform="translate(194.99 4342.775)" fill="#fff"/>
    <rect id="Rectángulo_7024" data-name="Rectángulo 7024" width="0.394" height="2.851" transform="translate(269.399 5127.634)" fill="#fff"/>
    <path id="Trazado_7698" data-name="Trazado 7698" d="M75.487,784.859v2.851h.394v-2.256l1.752,2.256H78.1v-2.851H77.7v2.307l-1.795-2.307Z" transform="translate(195.23 4342.775)" fill="#fff"/>
    <path id="Trazado_7699" data-name="Trazado 7699" d="M79.487,787.71h.394v-2.5h.9v-.353H78.591v.353h.9Z" transform="translate(195.383 4342.775)" fill="#fff"/>
    <path id="Trazado_7700" data-name="Trazado 7700" d="M81.685,786.45H83.1v-.34H81.685v-.886h1.577v-.365H81.291v2.851h2.023v-.365H81.685Z" transform="translate(195.515 4342.775)" fill="#fff"/>
    <path id="Trazado_7701" data-name="Trazado 7701" d="M84.321,784.859h-.394v2.851H85.67v-.369H84.321Z" transform="translate(195.644 4342.775)" fill="#fff"/>
    <path id="Trazado_7702" data-name="Trazado 7702" d="M86.6,784.859h-.394v2.851h1.744v-.369H86.6Z" transform="translate(195.756 4342.775)" fill="#fff"/>
    <rect id="Rectángulo_7025" data-name="Rectángulo 7025" width="0.394" height="2.851" transform="translate(284.357 5127.634)" fill="#fff"/>
    <path id="Trazado_7703" data-name="Trazado 7703" d="M90.293,787.074a1.163,1.163,0,0,1,.008-1.594,1.107,1.107,0,0,1,.789-.3,1.367,1.367,0,0,1,.424.06,1.093,1.093,0,0,1,.323.178l.207-.295a1.517,1.517,0,0,0-.991-.329,1.459,1.459,0,0,0-1.052.425,1.431,1.431,0,0,0-.435,1.063,1.414,1.414,0,0,0,.427,1.053,1.465,1.465,0,0,0,1.061.417,1.5,1.5,0,0,0,1.145-.429v-.938h-.4v.788l-.023.016a1.341,1.341,0,0,1-.732.19,1.049,1.049,0,0,1-.753-.3" transform="translate(195.921 4342.772)" fill="#fff"/>
    <path id="Trazado_7704" data-name="Trazado 7704" d="M93.192,786.45h1.416v-.34H93.192v-.886h1.577v-.365H92.8v2.851H94.82v-.365H93.192Z" transform="translate(196.079 4342.775)" fill="#fff"/>
    <path id="Trazado_7705" data-name="Trazado 7705" d="M95.433,784.859v2.851h.394v-2.256l1.752,2.256h.464v-2.851h-.394v2.307l-1.795-2.307Z" transform="translate(196.209 4342.775)" fill="#fff"/>
    <path id="Trazado_7706" data-name="Trazado 7706" d="M100.609,785.261a1.382,1.382,0,0,1,.377.257l.249-.272a1.438,1.438,0,0,0-1.077-.456,1.52,1.52,0,0,0-1.1.425,1.43,1.43,0,0,0-.434,1.063,1.413,1.413,0,0,0,.426,1.053,1.486,1.486,0,0,0,1.075.417,1.431,1.431,0,0,0,1.068-.467l-.252-.258a1.553,1.553,0,0,1-.365.252,1.114,1.114,0,0,1-.466.091,1.031,1.031,0,0,1-.753-.318,1.077,1.077,0,0,1-.318-.79,1.035,1.035,0,0,1,.32-.777,1.11,1.11,0,0,1,.789-.3,1.167,1.167,0,0,1,.463.085" transform="translate(196.365 4342.772)" fill="#fff"/>
    <path id="Trazado_7707" data-name="Trazado 7707" d="M102.163,786.45h1.416v-.34h-1.416v-.886h1.577v-.365h-1.971v2.851h2.023v-.365h-1.628Z" transform="translate(196.519 4342.775)" fill="#fff"/>
  </g>
</svg>
