<svg xmlns="http://www.w3.org/2000/svg" width="35.997" height="52.22" viewBox="0 0 35.997 52.22">
  <path id="icon2" d="M80.139,292.625a8.38,8.38,0,0,1-.77-.366,2.538,2.538,0,0,1-1.269-2.243c-.005-.2,0-.4,0-.655-1.176,0-2.31.011-3.443,0-.713-.009-1.428-.023-2.135-.1a4.883,4.883,0,0,1-2.767-1.3c-.342-.306-.674-.622-1.011-.935a3.007,3.007,0,0,0-2.62-.809,2.089,2.089,0,0,1-2.383,1.558c-.645,0-1.292.01-1.937-.005-.568-.013-.9-.306-.9-.758s.329-.747.9-.761c.679-.017,1.36,0,2.04-.006s.76-.085.76-.77q0-6.578,0-13.155c0-.612-.01-1.224,0-1.835.009-.449-.178-.646-.637-.645q-4.106.014-8.211,0c-.422,0-.616.166-.615.608q.01,7.6,0,15.194c0,.443.2.609.619.6.731-.009,1.462-.009,2.193,0,.447.008.8.168.868.676a.693.693,0,0,1-.7.822,28.124,28.124,0,0,1-2.9-.029,1.839,1.839,0,0,1-1.6-1.834c-.024-.7-.008-1.394-.009-2.09q0-6.6,0-13.205a1.988,1.988,0,0,1,2.234-2.274q4.029-.009,8.058,0a1.978,1.978,0,0,1,2.164,1.48.542.542,0,0,0,.4.247,4.656,4.656,0,0,0,3.749-1.376,13.089,13.089,0,0,1,5.083-3.3c.894-.306,1.825-.5,2.77-.76v-6.037c-.8.148-1.569.326-2.351.43a10.19,10.19,0,0,1-6.33-1.015,9.826,9.826,0,0,0-7.513-.674c-.1.027-.2.056-.294.082a1.339,1.339,0,0,1-1.826-1.362c-.021-1.393-.006-2.788-.006-4.18q0-3.391,0-6.782A1.469,1.469,0,0,1,61,243.351a11.4,11.4,0,0,1,9.045.615,9.911,9.911,0,0,0,7.611.446,10.1,10.1,0,0,1,.01-1.386,3.021,3.021,0,0,1,5.269-1.563,2.949,2.949,0,0,1,.489,3.282,2.512,2.512,0,0,0-.206.919c-.014,3.535-.009,7.07-.009,10.606,0,.186.058.421-.032.55a1.524,1.524,0,0,1-.646.6.606.606,0,0,1-.778-.476,2.286,2.286,0,0,1-.071-.653q-.006-4.665,0-9.33v-.521H79.659v23.514H81.68v-9.132c0-.136-.005-.272,0-.408.027-.555.328-.9.777-.894s.748.346.749.907q.008,4.462,0,8.923v.655c1.087,0,2.119,0,3.151,0a3.373,3.373,0,0,1,1.937.522,2.973,2.973,0,0,1,.51,4.5l-.243.262a3.248,3.248,0,0,1,.883,2.4,3.1,3.1,0,0,1-1.287,2.248,3.054,3.054,0,0,1-.489,4.384,8.692,8.692,0,0,1,.527.965,2.968,2.968,0,0,1-2.676,4.066c-.744.035-1.492.005-2.314.005,0,.232,0,.428,0,.624a2.542,2.542,0,0,1-1.83,2.536,1.9,1.9,0,0,0-.22.11Zm-13.977-7.968c.212,0,.378,0,.545,0a4.307,4.307,0,0,1,3.042,1.22c.265.237.531.477.784.728a4.241,4.241,0,0,0,3.131,1.233c3.858-.015,7.716,0,11.574-.007a1.469,1.469,0,1,0,.012-2.919c-.714-.012-1.428,0-2.141-.005-.629-.009-.941-.268-.941-.755s.318-.758.938-.768c.816-.014,1.632,0,2.448-.007a2.921,2.921,0,0,0,.708-.064,1.441,1.441,0,0,0,1.063-1.541,1.4,1.4,0,0,0-1.354-1.282c-.951-.028-1.9,0-2.855-.015-.611-.006-.945-.284-.949-.76s.323-.76.932-.765c1.02-.006,2.039,0,3.059,0a2.771,2.771,0,0,0,.606-.057,1.427,1.427,0,0,0,1.155-1.566A1.445,1.445,0,0,0,86.479,276c-1-.021-2.006-.006-3.008-.008a5.331,5.331,0,0,1-.561-.009.759.759,0,1,1,.035-1.517c.135-.009.271,0,.408,0,1.07,0,2.141.011,3.212-.006a1.459,1.459,0,1,0,.066-2.917c-.152-.011-.306-.006-.458-.006-2.057,0-4.113,0-6.17,0a1.68,1.68,0,0,1-1.9-1.913c0-1.12,0-2.24,0-3.385a11.123,11.123,0,0,0-3.422,1.04,12.477,12.477,0,0,0-3.392,2.491,5.791,5.791,0,0,1-3.181,1.7c-.63.1-1.277.1-1.943.152Zm-4.85-28.818c.182-.032.329-.049.473-.085a11.264,11.264,0,0,1,8.262.85,8.4,8.4,0,0,0,4.116.983,12.473,12.473,0,0,0,3.9-.679V245.9c-.255.062-.467.116-.68.166a11.064,11.064,0,0,1-8.025-.738,9.97,9.97,0,0,0-7.571-.637.572.572,0,0,0-.507.659c.018,3.331.009,6.662.011,9.994,0,.149.014.3.024.5m19.415-13.894a1.541,1.541,0,0,0-1.59,1.46,1.52,1.52,0,0,0,3.036.137,1.528,1.528,0,0,0-1.446-1.6m.936,47.445H79.64c-.018.586-.09,1.156.477,1.527a.931.931,0,0,0,1.056.019c.586-.356.523-.932.491-1.546" transform="translate(-53.613 -240.405)" fill="#fff"/>
</svg>
