<svg xmlns="http://www.w3.org/2000/svg" width="12.236" height="13.493" viewBox="0 0 12.236 13.493">
  <path id="Icon_simple-email" data-name="Icon simple-email" d="M13.9,6.228a6.959,6.959,0,0,1-.224,1.509,4.368,4.368,0,0,1-.587,1.325,3.1,3.1,0,0,1-.995.942,2.808,2.808,0,0,1-1.453.358,2.106,2.106,0,0,1-1.051-.257,1.8,1.8,0,0,1-.71-.728,2.25,2.25,0,0,1-1.9.956A1.936,1.936,0,0,1,5.312,9.44,2.926,2.926,0,0,1,4.9,8.4a4.465,4.465,0,0,1-.054-1.351A6.275,6.275,0,0,1,5.257,5.4a4.5,4.5,0,0,1,.761-1.267,3.217,3.217,0,0,1,1.046-.808,2.917,2.917,0,0,1,1.272-.282,3.954,3.954,0,0,1,.761.065,3.113,3.113,0,0,1,.59.177,3.192,3.192,0,0,1,.489.258c.149.1.3.2.449.3l-.369,4.25a1.413,1.413,0,0,0,.011.5.7.7,0,0,0,.152.307.546.546,0,0,0,.246.16.914.914,0,0,0,.865-.17,1.844,1.844,0,0,0,.464-.59,3.8,3.8,0,0,0,.312-.887,6.086,6.086,0,0,0,.137-1.1,7.059,7.059,0,0,0-.174-2.064,4.1,4.1,0,0,0-.764-1.6,3.547,3.547,0,0,0-1.369-1.029,4.97,4.97,0,0,0-1.995-.365,4.4,4.4,0,0,0-1.973.43,4.527,4.527,0,0,0-1.5,1.192,5.722,5.722,0,0,0-.981,1.793A8.082,8.082,0,0,0,3.271,6.9a7.43,7.43,0,0,0,.211,2.28,4.118,4.118,0,0,0,.833,1.634,3.476,3.476,0,0,0,1.411.981,5.414,5.414,0,0,0,1.948.325,6.671,6.671,0,0,0,1.278-.137c.211-.042.411-.093.6-.148a4.525,4.525,0,0,0,.518-.186l.267,1.2a2.967,2.967,0,0,1-.579.287,5.576,5.576,0,0,1-.685.2,6.681,6.681,0,0,1-1.43.16,7.5,7.5,0,0,1-2.607-.42,4.8,4.8,0,0,1-1.9-1.25A5.248,5.248,0,0,1,2,9.761,8.8,8.8,0,0,1,1.677,6.9a8.735,8.735,0,0,1,.548-2.749,6.8,6.8,0,0,1,1.32-2.184A6.017,6.017,0,0,1,5.56.523,6.307,6.307,0,0,1,8.169,0,6.584,6.584,0,0,1,10.7.453a4.917,4.917,0,0,1,1.825,1.273A5.225,5.225,0,0,1,13.6,3.693,7.522,7.522,0,0,1,13.9,6.228Zm-7.241.826A2.868,2.868,0,0,0,6.8,8.477a.763.763,0,0,0,.734.481.81.81,0,0,0,.251-.046.9.9,0,0,0,.289-.174,1.543,1.543,0,0,0,.293-.354,2.718,2.718,0,0,0,.27-.6l.288-3.3a1.723,1.723,0,0,0-.449-.059,1.551,1.551,0,0,0-.746.171,1.477,1.477,0,0,0-.529.5,2.951,2.951,0,0,0-.351.826,7.01,7.01,0,0,0-.2,1.13Z" transform="translate(-1.67)" fill="#fff" opacity="0.66"/>
</svg>
