<svg xmlns="http://www.w3.org/2000/svg" width="49.951" height="45.366" viewBox="0 0 49.951 45.366">
  <path id="icone1" d="M69.415,113.259v-4.317H54.456a3.339,3.339,0,0,1-3.666-3.65q0-13.318,0-26.637a3.316,3.316,0,0,1,3.623-3.632q21.353,0,42.707,0a3.318,3.318,0,0,1,3.62,3.635q0,13.345,0,26.691a3.325,3.325,0,0,1-3.616,3.592q-7.153,0-14.306,0h-.685v4.317h2.032c1.358,0,2.715-.012,4.073,0a3.847,3.847,0,0,1,3.94,3.929q.013,1.1,0,2.2c-.008.677-.3.968-.982,1-.107,0-.214,0-.321,0H60.652c-.125,0-.251,0-.376,0a.853.853,0,0,1-.922-.946c-.011-.732-.008-1.465,0-2.2a3.852,3.852,0,0,1,4-3.979c1.822-.012,3.644,0,5.466,0Zm29.61-11.466v-.574q0-11.31,0-22.619a1.635,1.635,0,0,0-1.879-1.861q-21.383,0-42.765,0A1.634,1.634,0,0,0,52.5,78.6q0,11.31,0,22.62v.574Zm0,1.768H52.5v1.645c0,1.477.551,2.022,2.043,2.022H96.982c.178,0,.358.009.535-.007a1.571,1.571,0,0,0,1.5-1.481c.033-.712.007-1.426.007-2.179m-37.94,15.079H90.437a15.541,15.541,0,0,0-.014-1.9,2.137,2.137,0,0,0-2.328-1.769q-12.32,0-24.639,0c-.125,0-.251,0-.375.008a2.117,2.117,0,0,0-1.991,1.845c-.05.583-.009,1.174-.009,1.813M71.2,113.228h9.15v-4.259H71.2Z" transform="translate(-50.789 -75.021)" fill="#fff"/>
</svg>
