<svg xmlns="http://www.w3.org/2000/svg" width="12.726" height="12.726" viewBox="0 0 12.726 12.726">
  <path id="Icon_material-local-phone" data-name="Icon material-local-phone" d="M7.059,10.007a10.71,10.71,0,0,0,4.659,4.659l1.555-1.555a.7.7,0,0,1,.721-.17,8.065,8.065,0,0,0,2.524.4.709.709,0,0,1,.707.707v2.467a.709.709,0,0,1-.707.707A12.018,12.018,0,0,1,4.5,5.207.709.709,0,0,1,5.207,4.5H7.681a.709.709,0,0,1,.707.707,8.032,8.032,0,0,0,.4,2.524.709.709,0,0,1-.177.721Z" transform="translate(-4.5 -4.5)" fill="#fff" opacity="0.66"/>
</svg>
