<svg id="Icon_awesome-instagram" data-name="Icon awesome-instagram" xmlns="http://www.w3.org/2000/svg" width="23.92" height="23.914" viewBox="0 0 23.92 23.914">
  <path id="Icon_awesome-instagram-2" data-name="Icon awesome-instagram" d="M11.957,8.063a6.131,6.131,0,1,0,6.131,6.131A6.122,6.122,0,0,0,11.957,8.063Zm0,10.117a3.986,3.986,0,1,1,3.986-3.986,3.993,3.993,0,0,1-3.986,3.986ZM19.77,7.813a1.43,1.43,0,1,1-1.43-1.43A1.427,1.427,0,0,1,19.77,7.813Zm4.061,1.451A7.077,7.077,0,0,0,21.9,4.253a7.124,7.124,0,0,0-5.011-1.932C14.914,2.21,9,2.21,7.021,2.322A7.114,7.114,0,0,0,2.011,4.248,7.1,7.1,0,0,0,.079,9.259c-.112,1.974-.112,7.892,0,9.867a7.077,7.077,0,0,0,1.932,5.011,7.133,7.133,0,0,0,5.011,1.932c1.974.112,7.892.112,9.867,0A7.077,7.077,0,0,0,21.9,24.136a7.124,7.124,0,0,0,1.932-5.011c.112-1.974.112-7.887,0-9.861ZM21.28,21.244a4.036,4.036,0,0,1-2.273,2.273c-1.574.624-5.31.48-7.049.48s-5.48.139-7.049-.48a4.036,4.036,0,0,1-2.273-2.273c-.624-1.574-.48-5.309-.48-7.049s-.139-5.48.48-7.049A4.036,4.036,0,0,1,4.908,4.872c1.574-.624,5.31-.48,7.049-.48s5.48-.139,7.049.48A4.036,4.036,0,0,1,21.28,7.146c.624,1.574.48,5.309.48,7.049S21.9,19.675,21.28,21.244Z" transform="translate(0.005 -2.238)" fill="#fff"/>
</svg>
