<svg id="Icon_awesome-linkedin-in" data-name="Icon awesome-linkedin-in" xmlns="http://www.w3.org/2000/svg" width="23.906" height="23.906" viewBox="0 0 23.906 23.906">
  <path id="Icon_awesome-linkedin-in-2" data-name="Icon awesome-linkedin-in" d="M5.351,23.906H.395V7.946H5.351ZM2.87,5.769a2.884,2.884,0,1,1,2.87-2.9A2.9,2.9,0,0,1,2.87,5.769ZM23.9,23.906H18.956v-7.77c0-1.852-.037-4.226-2.577-4.226-2.577,0-2.972,2.012-2.972,4.093v7.9H8.456V7.946h4.754v2.177h.069a5.208,5.208,0,0,1,4.69-2.577c5.016,0,5.938,3.3,5.938,7.593v8.767Z" transform="translate(0 -0.001)" fill="#fff"/>
</svg>
