<svg xmlns="http://www.w3.org/2000/svg" width="43.624" height="40.977" viewBox="0 0 43.624 40.977">
  <g id="icontime" transform="translate(-245.265 -5232.839)">
    <path id="Trazado_7684" data-name="Trazado 7684" d="M96.658,935.647c-.11.784-.185,1.574-.335,2.351a20.52,20.52,0,0,1-28.957,14.841,18.416,18.416,0,0,1-7.162-5.956,1.369,1.369,0,1,1,2.184-1.629,16.345,16.345,0,0,0,10.418,6.54,17.74,17.74,0,1,0-13.954-21.005c-.041.2-.068.408-.121.73.318-.319.55-.563.792-.8a1.361,1.361,0,1,1,1.932,1.914q-1.66,1.683-3.344,3.343a1.332,1.332,0,0,1-2.154-.224q-1.346-1.992-2.667-4a1.364,1.364,0,1,1,2.271-1.507c.145.2.281.412.432.638.294-1.057.507-2.085.862-3.061,2.634-7.233,7.7-11.829,15.219-13.446a20.353,20.353,0,0,1,24.211,16.116c.17.859.25,1.734.373,2.6Z" transform="translate(192.23 4318.922)" fill="#fff"/>
    <path id="Trazado_7685" data-name="Trazado 7685" d="M77.791,930.211c0-2.044-.006-4.088,0-6.132a1.359,1.359,0,0,1,2.689-.292,2.683,2.683,0,0,1,.032.551q0,5.451-.006,10.9a.736.736,0,0,0,.329.67c2.36,1.772,4.71,3.557,7.066,5.335a1.525,1.525,0,0,1,.7,1.018,1.3,1.3,0,0,1-.64,1.379,1.312,1.312,0,0,1-1.553-.1q-1.791-1.338-3.575-2.683c-1.465-1.1-2.925-2.2-4.4-3.291a1.521,1.521,0,0,1-.655-1.309q.005-3.023,0-6.047" transform="translate(188.604 4317.635)" fill="#fff"/>
  </g>
</svg>
