<svg xmlns="http://www.w3.org/2000/svg" xmlns:xlink="http://www.w3.org/1999/xlink" width="74.73" height="20.178" viewBox="0 0 74.73 20.178">
  <defs>
    <clipPath id="clip-path">
      <path id="Trazado_7718" data-name="Trazado 7718" d="M53.526,596.083v.008c-1.648,0-3.3,0-4.946,0a4.788,4.788,0,0,0-.763.067,5.474,5.474,0,0,0-4.515,6.617,5.369,5.369,0,0,0,3.87,4.1c.959.282,1.949.469,2.928.671,1.128.23,2.266.412,3.392.648a1.958,1.958,0,0,1,1.62,1.947,1.924,1.924,0,0,1-1.688,1.846,6.553,6.553,0,0,1-1.117.086q-3.074.008-6.148.005H43.925c-.138,0-.276.016-.415.024a.4.4,0,0,0-.411.462c0,.884-.007,1.769,0,2.653.005.462.143.58.6.58q4.865,0,9.731,0a6.673,6.673,0,0,0,.925-.066,5.2,5.2,0,0,0,2.83-1.256,5.433,5.433,0,0,0,1.846-5.408,5.356,5.356,0,0,0-3.913-4.322c-1.529-.445-3.131-.65-4.694-.984a18.22,18.22,0,0,1-2.229-.573,1.674,1.674,0,0,1-1-2.22,1.758,1.758,0,0,1,1.718-1.151q4.191,0,8.382.005c.219,0,.4-.02.494-.256.409-1.039.828-2.075,1.231-3.117.124-.319.076-.366-.27-.366H53.526" transform="translate(-43.097 -596.083)" fill="none"/>
    </clipPath>
    <radialGradient id="radial-gradient" cx="0.506" cy="0.5" r="0.456" gradientTransform="matrix(1.166, 0, 0, -1, 0.435, 44.764)" gradientUnits="objectBoundingBox">
      <stop offset="0" stop-color="#fff"/>
      <stop offset="1" stop-color="#f2f4fb"/>
    </radialGradient>
    <clipPath id="clip-path-2">
      <path id="Trazado_7719" data-name="Trazado 7719" d="M68.575,612.255a3.815,3.815,0,0,1-3.926-3.985,3.852,3.852,0,1,1,7.7.067,3.953,3.953,0,0,1-3.765,3.918h-.008m-.736-11.247a7.744,7.744,0,0,0-5.1,2.481,6.821,6.821,0,0,0-1.8,5.924,7.24,7.24,0,0,0,3.107,4.815,7.762,7.762,0,0,0,5.675,1.291,7.11,7.11,0,0,0,5.357-3.474,6.8,6.8,0,0,0-.28-7.932,7.236,7.236,0,0,0-6.156-3.108c-.17,0-.341-.01-.511-.01a2.7,2.7,0,0,0-.292.014" transform="translate(-60.839 -600.995)" fill="none"/>
    </clipPath>
    <radialGradient id="radial-gradient-2" cx="0.493" cy="0.494" r="0.508" gradientTransform="matrix(0.916, 0, 0, -1, -0.33, 59.058)" xlink:href="#radial-gradient"/>
    <clipPath id="clip-path-3">
      <path id="Trazado_7720" data-name="Trazado 7720" d="M83.042,596.173a4.513,4.513,0,0,0-3.455,2.121,5.716,5.716,0,0,0-.864,2.8c-.023.532-.094.6-.632.6-.225,0-.449,0-.675,0a.311.311,0,0,0-.358.349c0,.842,0,1.684,0,2.525a.321.321,0,0,0,.362.354c.246,0,.492,0,.738,0,.488,0,.5.017.5.5q0,4.812,0,9.623c0,.41.01.419.409.419h3.019c.417,0,.434-.018.434-.434q0-2.43,0-4.859c0-1.641.005-3.283,0-4.924,0-.25.075-.339.328-.334.28.006.563,0,.845,0,.308,0,.614,0,.921,0s.425-.092.42-.4c-.015-.821-.017-1.641,0-2.461.006-.307-.117-.385-.4-.382-.514,0-1.027-.016-1.54-.031-.465-.015-.618-.189-.571-.64a1.761,1.761,0,0,1,1.484-1.693,3.8,3.8,0,0,1,.847-.038c.141.005.283.008.423.005a.921.921,0,0,1,.127.008c.165.018.333.034.347-.251.035-.742.082-1.486.111-2.229.018-.5-.053-.621-.563-.652-.424-.024-.853-.048-1.279-.048a7.964,7.964,0,0,0-.986.055" transform="translate(-77.058 -596.118)" fill="none"/>
    </clipPath>
    <radialGradient id="radial-gradient-3" cx="0.5" cy="0.5" r="0.389" gradientTransform="matrix(2.191, 0, 0, -1, 10.835, 45.595)" xlink:href="#radial-gradient"/>
    <clipPath id="clip-path-4">
      <rect id="Rectángulo_7041" data-name="Rectángulo 7041" width="3.98" height="19.817" fill="none"/>
    </clipPath>
    <radialGradient id="radial-gradient-4" cx="0.5" cy="0.5" r="0.358" gradientTransform="matrix(4.979, 0, 0, -1.008, 92.341, 44.771)" xlink:href="#radial-gradient"/>
    <clipPath id="clip-path-5">
      <path id="Trazado_7721" data-name="Trazado 7721" d="M103.273,595.647l-8.978,19.817h4.853l5.873-13.492,5.776,13.492h4.853l-8.056-19.817Z" transform="translate(-94.295 -595.647)" fill="none"/>
    </clipPath>
    <radialGradient id="radial-gradient-5" cx="0.5" cy="0.5" r="0.52" gradientTransform="matrix(0.928, 0, 0, -1, -0.331, 44.589)" xlink:href="#radial-gradient"/>
  </defs>
  <g id="icon_sofia" data-name="icon sofia" transform="translate(-236.783 -4961.196)">
    <g id="Grupo_19188" data-name="Grupo 19188" transform="translate(236.783 4961.651)">
      <g id="Grupo_19187" data-name="Grupo 19187" clip-path="url(#clip-path)">
        <rect id="Rectángulo_7037" data-name="Rectángulo 7037" width="16.914" height="19.719" transform="translate(-0.529)" fill="url(#radial-gradient)"/>
      </g>
    </g>
    <g id="Grupo_19190" data-name="Grupo 19190" transform="translate(255.28 4966.772)">
      <g id="Grupo_19189" data-name="Grupo 19189" clip-path="url(#clip-path-2)">
        <rect id="Rectángulo_7038" data-name="Rectángulo 7038" width="16.132" height="14.773" transform="translate(-0.265)" fill="url(#radial-gradient-2)"/>
      </g>
    </g>
    <g id="Grupo_19192" data-name="Grupo 19192" transform="translate(272.189 4961.687)">
      <g id="Grupo_19191" data-name="Grupo 19191" clip-path="url(#clip-path-3)">
        <rect id="Rectángulo_7039" data-name="Rectángulo 7039" width="8.833" height="19.358" transform="translate(-0.003)" fill="url(#radial-gradient-3)"/>
      </g>
    </g>
    <g id="Grupo_19194" data-name="Grupo 19194" transform="translate(284.238 4961.196)">
      <g id="Grupo_19193" data-name="Grupo 19193" clip-path="url(#clip-path-4)">
        <rect id="Rectángulo_7040" data-name="Rectángulo 7040" width="3.98" height="19.817" fill="url(#radial-gradient-4)"/>
      </g>
    </g>
    <g id="Grupo_19196" data-name="Grupo 19196" transform="translate(290.159 4961.196)">
      <g id="Grupo_19195" data-name="Grupo 19195" clip-path="url(#clip-path-5)">
        <rect id="Rectángulo_7042" data-name="Rectángulo 7042" width="21.354" height="19.817" fill="url(#radial-gradient-5)"/>
      </g>
    </g>
  </g>
</svg>
