<svg xmlns="http://www.w3.org/2000/svg" width="11.691" height="13.361" viewBox="0 0 11.691 13.361">
  <path id="Icon_awesome-building" data-name="Icon awesome-building" d="M11.378,12.526h-.522V.626A.626.626,0,0,0,10.23,0H1.461A.626.626,0,0,0,.835.626v11.9H.313A.313.313,0,0,0,0,12.84v.522H11.691V12.84A.313.313,0,0,0,11.378,12.526ZM3.34,1.983a.313.313,0,0,1,.313-.313H4.7a.313.313,0,0,1,.313.313V3.027A.313.313,0,0,1,4.7,3.34H3.654a.313.313,0,0,1-.313-.313Zm0,2.505a.313.313,0,0,1,.313-.313H4.7a.313.313,0,0,1,.313.313V5.532a.313.313,0,0,1-.313.313H3.654a.313.313,0,0,1-.313-.313ZM4.7,8.351H3.654a.313.313,0,0,1-.313-.313V6.994a.313.313,0,0,1,.313-.313H4.7a.313.313,0,0,1,.313.313V8.038A.313.313,0,0,1,4.7,8.351Zm1.983,4.175H5.011V10.334a.313.313,0,0,1,.313-.313H6.368a.313.313,0,0,1,.313.313Zm1.67-4.489a.313.313,0,0,1-.313.313H6.994a.313.313,0,0,1-.313-.313V6.994a.313.313,0,0,1,.313-.313H8.038a.313.313,0,0,1,.313.313Zm0-2.505a.313.313,0,0,1-.313.313H6.994a.313.313,0,0,1-.313-.313V4.489a.313.313,0,0,1,.313-.313H8.038a.313.313,0,0,1,.313.313Zm0-2.505a.313.313,0,0,1-.313.313H6.994a.313.313,0,0,1-.313-.313V1.983a.313.313,0,0,1,.313-.313H8.038a.313.313,0,0,1,.313.313Z" fill="#fff"/>
</svg>
