<svg id="Icon_ionic-logo-twitter" data-name="Icon ionic-logo-twitter" xmlns="http://www.w3.org/2000/svg" width="25.182" height="20.491" viewBox="0 0 25.182 20.491">
  <path id="Icon_ionic-logo-twitter-2" data-name="Icon ionic-logo-twitter" d="M26.6,6.928a10.445,10.445,0,0,1-2.967.816A5.184,5.184,0,0,0,25.9,4.884,10.266,10.266,0,0,1,22.62,6.138a5.165,5.165,0,0,0-8.938,3.533,5.058,5.058,0,0,0,.133,1.179A14.641,14.641,0,0,1,3.164,5.444a5.176,5.176,0,0,0,1.606,6.9A5.046,5.046,0,0,1,2.422,11.7v.064a5.171,5.171,0,0,0,4.146,5.069,5.2,5.2,0,0,1-1.361.181,4.874,4.874,0,0,1-.971-.1,5.175,5.175,0,0,0,4.829,3.591,10.359,10.359,0,0,1-6.42,2.214,10.472,10.472,0,0,1-1.233-.075,14.441,14.441,0,0,0,7.908,2.337A14.612,14.612,0,0,0,24.034,10.274c0-.224-.005-.448-.016-.667A10.517,10.517,0,0,0,26.6,6.928Z" transform="translate(-1.413 -4.5)" fill="#fff"/>
</svg>
