<svg xmlns="http://www.w3.org/2000/svg" width="29.859" height="25.242" viewBox="0 0 29.859 25.242">
  <path id="Icon_simple-drone" data-name="Icon simple-drone" d="M18.749,17.436a3.82,3.82,0,1,1-3.82-3.82,3.82,3.82,0,0,1,3.82,3.82ZM14.93,2.784c6.667.052,14.248,4.753,14.93,13.611H20.832s-1.163-4.893-5.9-4.861-5.9,4.861-5.9,4.861H0C.439,7.693,7.893,2.729,14.93,2.784Zm.062,25.241c-4.972.014-9.616-3.739-11.519-9.548H9.027s1.2,4.838,5.938,4.806,5.867-4.806,5.867-4.806h5.555a11.685,11.685,0,0,1-11.4,9.548Z" transform="translate(0 -2.783)" fill="#fff"/>
</svg>
