<svg xmlns="http://www.w3.org/2000/svg" width="36.052" height="22.533" viewBox="0 0 36.052 22.533">
  <path id="Icon_metro-eye" data-name="Icon metro-eye" d="M20.6,7.712A20.19,20.19,0,0,0,2.571,18.978a20.054,20.054,0,0,0,36.052,0A20.19,20.19,0,0,0,20.6,7.712Zm8.888,5.975a17.143,17.143,0,0,1,5.261,5.292,17.143,17.143,0,0,1-5.261,5.292,16.519,16.519,0,0,1-17.776,0,17.143,17.143,0,0,1-5.261-5.292,17.142,17.142,0,0,1,5.261-5.292c.138-.088.277-.173.418-.257a9.013,9.013,0,1,0,16.941,0q.211.126.417.257ZM20.6,15.6a3.38,3.38,0,1,1-3.38-3.38A3.38,3.38,0,0,1,20.6,15.6Z" transform="translate(-2.571 -7.712)" fill="#fff"/>
</svg>
