<svg id="Logotipo-Ai27" xmlns="http://www.w3.org/2000/svg" width="271.421" height="107.699" viewBox="0 0 271.421 107.699">
  <g id="Grupo_19054" data-name="Grupo 19054">
    <g id="Grupo_19052" data-name="Grupo 19052">
      <g id="Grupo_19050" data-name="Grupo 19050" transform="translate(138.708)">
        <path id="Trazado_7623" data-name="Trazado 7623" d="M975.884,512.012h-60V495.371l12.906-10.528,17.32-13.924c9.849-7.7,10.868-12,10.868-16.867,0-8.151-6.566-10.528-12.226-10.528-9.736,0-12.905,11.886-13.245,13.019l-17.433-4.3c2.377-8.377,11.66-24.339,30.678-24.339,20.6,0,30.226,13.584,30.226,26.15,0,11.887-8.264,21.282-18.226,29.546-4.188,3.283-10.188,8.151-16.414,12.906h35.546Z" transform="translate(-914.074 -427.901)" fill="#fff"/>
        <path id="Trazado_7624" data-name="Trazado 7624" d="M1170.7,444.447l-39.527,67.565H1110.26l40.906-68.254h-43.549V427.9H1170.7Z" transform="translate(-1037.986 -427.901)" fill="#fff"/>
      </g>
      <g id="Grupo_19051" data-name="Grupo 19051">
        <path id="Trazado_7625" data-name="Trazado 7625" d="M808.6,512.012V427.9h18.18v84.111Z" transform="translate(-707.839 -427.901)" fill="#485cc7"/>
        <path id="Trazado_7626" data-name="Trazado 7626" d="M547.938,512.012h-19.41l36.98-84.111h18.3l34.182,84.111h-19.3l-25.161-57.884Z" transform="translate(-528.527 -427.901)" fill="#485cc7"/>
      </g>
    </g>
    <g id="Grupo_19053" data-name="Grupo 19053" transform="translate(19.381 96.874)">
      <path id="Trazado_7627" data-name="Trazado 7627" d="M589.391,698.8a5.416,5.416,0,0,0-3.469-.9H582.4v10.439h1.444v-3.173h2.111a5.509,5.509,0,0,0,3.419-.872,3.288,3.288,0,0,0,1.081-2.73A3.415,3.415,0,0,0,589.391,698.8Zm-1.031,4.451a2.964,2.964,0,0,1-2.205.64h-2.312v-4.717h2.048a4.152,4.152,0,0,1,2.289.5,1.951,1.951,0,0,1,.782,1.746A2.582,2.582,0,0,1,588.36,703.248Z" transform="translate(-582.398 -697.634)" fill="#fff"/>
      <path id="Trazado_7628" data-name="Trazado 7628" d="M617.885,704.412a2.948,2.948,0,0,0,2.2-3.192,3.026,3.026,0,0,0-1-2.528,5.688,5.688,0,0,0-3.427-.8H611.83v10.439h1.444V704.7h2.689l2.585,3.637h1.85l-2.771-3.847Zm-2.143-.989h-2.467v-4.252h2.514a3.929,3.929,0,0,1,2.151.428,1.826,1.826,0,0,1,.655,1.612,2.114,2.114,0,0,1-.623,1.685A3.474,3.474,0,0,1,615.742,703.423Z" transform="translate(-601.241 -697.634)" fill="#fff"/>
      <path id="Trazado_7629" data-name="Trazado 7629" d="M644.6,703.723h5.186v-1.243H644.6v-3.246h5.774V697.9h-7.218v10.439h7.4V707H644.6Z" transform="translate(-621.296 -697.634)" fill="#fff"/>
      <path id="Trazado_7630" data-name="Trazado 7630" d="M674.819,697.9h-3.524v10.439h3.4a6.3,6.3,0,0,0,4.511-1.417,5.145,5.145,0,0,0,1.459-3.857,4.887,4.887,0,0,0-1.5-3.8A6.288,6.288,0,0,0,674.819,697.9Zm3.278,8.117a4.568,4.568,0,0,1-3.139.985H672.74v-7.8h2.018c2.951,0,4.448,1.314,4.448,3.906A3.716,3.716,0,0,1,678.1,706.015Z" transform="translate(-639.313 -697.634)" fill="#fff"/>
      <rect id="Rectángulo_6940" data-name="Rectángulo 6940" width="1.444" height="10.439" transform="translate(44.088 0.263)" fill="#fff"/>
      <path id="Trazado_7631" data-name="Trazado 7631" d="M723.708,698.89a5.036,5.036,0,0,1,1.377.941l.911-1a5.273,5.273,0,0,0-3.943-1.667,5.559,5.559,0,0,0-4.031,1.555,5.237,5.237,0,0,0-1.591,3.888,5.183,5.183,0,0,0,1.561,3.857,5.429,5.429,0,0,0,3.938,1.525,5.226,5.226,0,0,0,3.909-1.709l-.92-.945a5.582,5.582,0,0,1-1.337.921,4.025,4.025,0,0,1-1.706.335,3.785,3.785,0,0,1-2.759-1.163,3.939,3.939,0,0,1-1.163-2.891,3.775,3.775,0,0,1,1.174-2.847,4.047,4.047,0,0,1,2.887-1.113A4.3,4.3,0,0,1,723.708,698.89Z" transform="translate(-668.21 -697.167)" fill="#fff"/>
      <path id="Trazado_7632" data-name="Trazado 7632" d="M750.48,708.336h1.444v-9.149h3.282V697.9H747.2v1.29h3.282Z" transform="translate(-687.908 -697.634)" fill="#fff"/>
      <rect id="Rectángulo_6941" data-name="Rectángulo 6941" width="1.444" height="10.439" transform="translate(69.662 0.263)" fill="#fff"/>
      <path id="Trazado_7633" data-name="Trazado 7633" d="M787.294,697.9h-1.633l4.2,10.439h1.785l4.2-10.439h-1.633l-3.456,8.392Z" transform="translate(-712.533 -697.634)" fill="#fff"/>
      <path id="Trazado_7634" data-name="Trazado 7634" d="M821.016,703.723H826.2v-1.243h-5.186v-3.246h5.775V697.9h-7.219v10.439h7.4V707h-5.96Z" transform="translate(-734.245 -697.634)" fill="#fff"/>
      <rect id="Rectángulo_6942" data-name="Rectángulo 6942" width="1.444" height="10.439" transform="translate(99.322 0.263)" fill="#fff"/>
      <path id="Trazado_7635" data-name="Trazado 7635" d="M871.9,697.9v10.439h1.444v-8.261l6.415,8.261h1.7V697.9h-1.444v8.447l-6.57-8.447Z" transform="translate(-767.743 -697.634)" fill="#fff"/>
      <path id="Trazado_7636" data-name="Trazado 7636" d="M908.31,708.336h1.444v-9.149h3.282V697.9h-8.009v1.29h3.282Z" transform="translate(-788.956 -697.634)" fill="#fff"/>
      <path id="Trazado_7637" data-name="Trazado 7637" d="M935.3,703.723h5.186v-1.243H935.3v-3.246h5.774V697.9h-7.219v10.439h7.4V707H935.3Z" transform="translate(-807.413 -697.634)" fill="#fff"/>
      <path id="Trazado_7638" data-name="Trazado 7638" d="M963.442,697.9H962v10.439h6.383v-1.352h-4.938Z" transform="translate(-825.43 -697.634)" fill="#fff"/>
      <path id="Trazado_7639" data-name="Trazado 7639" d="M987.795,697.9h-1.444v10.439h6.383v-1.352h-4.938Z" transform="translate(-841.021 -697.634)" fill="#fff"/>
      <rect id="Rectángulo_6943" data-name="Rectángulo 6943" width="1.444" height="10.439" transform="translate(154.092 0.263)" fill="#fff"/>
      <path id="Trazado_7640" data-name="Trazado 7640" d="M1024.858,705.527a4.253,4.253,0,0,1,.031-5.834,4.048,4.048,0,0,1,2.888-1.113,5.032,5.032,0,0,1,1.553.219,3.877,3.877,0,0,1,1.18.654l.757-1.082a5.544,5.544,0,0,0-3.629-1.2,5.337,5.337,0,0,0-3.853,1.555,5.546,5.546,0,0,0-.031,7.745,5.36,5.36,0,0,0,3.883,1.525,5.488,5.488,0,0,0,4.19-1.571v-3.434h-1.444v2.886l-.089.056a4.887,4.887,0,0,1-2.68.7A3.843,3.843,0,0,1,1024.858,705.527Z" transform="translate(-863.968 -697.167)" fill="#fff"/>
      <path id="Trazado_7641" data-name="Trazado 7641" d="M1058.146,703.723h5.187v-1.243h-5.187v-3.246h5.775V697.9H1056.7v10.439h7.4V707h-5.96Z" transform="translate(-886.062 -697.634)" fill="#fff"/>
      <path id="Trazado_7642" data-name="Trazado 7642" d="M1084.843,697.9v10.439h1.444v-8.261l6.415,8.261h1.7V697.9h-1.444v8.447l-6.57-8.447Z" transform="translate(-904.079 -697.634)" fill="#fff"/>
      <path id="Trazado_7643" data-name="Trazado 7643" d="M1126.156,698.89a5.038,5.038,0,0,1,1.377.941l.911-1a5.272,5.272,0,0,0-3.942-1.667,5.557,5.557,0,0,0-4.031,1.555,5.546,5.546,0,0,0-.031,7.745,5.43,5.43,0,0,0,3.938,1.525,5.225,5.225,0,0,0,3.908-1.709l-.92-.945a5.6,5.6,0,0,1-1.336.921,4.029,4.029,0,0,1-1.706.335,3.785,3.785,0,0,1-2.759-1.163,3.938,3.938,0,0,1-1.163-2.891,3.775,3.775,0,0,1,1.174-2.847,4.047,4.047,0,0,1,2.887-1.113A4.305,4.305,0,0,1,1126.156,698.89Z" transform="translate(-925.87 -697.167)" fill="#fff"/>
      <path id="Trazado_7644" data-name="Trazado 7644" d="M1153.929,703.723h5.186v-1.243h-5.186v-3.246h5.775V697.9h-7.219v10.439h7.4V707h-5.96Z" transform="translate(-947.385 -697.634)" fill="#fff"/>
    </g>
  </g>
</svg>
