<svg xmlns="http://www.w3.org/2000/svg" width="361.266" height="112.561" viewBox="0 0 361.266 112.561">
  <g id="logo-ai27" transform="translate(-104.668 -327.934)" opacity="0.81">
    <g id="Grupo_19054" data-name="Grupo 19054" transform="translate(105.434 328.434)">
      <g id="Grupo_19052" data-name="Grupo 19052" transform="translate(0 0)">
        <g id="Grupo_19050" data-name="Grupo 19050" transform="translate(183.975)">
          <path id="Trazado_7623" data-name="Trazado 7623" d="M996.056,539.462H916.476V517.39l17.118-13.964,22.972-18.468c13.064-10.21,14.415-15.915,14.415-22.372,0-10.811-8.709-13.964-16.217-13.964-12.913,0-17.116,15.766-17.567,17.267l-23.123-5.706c3.154-11.111,15.466-32.282,40.691-32.282,27.328,0,40.09,18.018,40.09,34.684,0,15.766-10.96,28.228-24.174,39.189-5.555,4.355-13.513,10.811-21.77,17.117h47.146Z" transform="translate(-914.073 -427.901)" fill="none" stroke="#006afd" stroke-width="1"/>
          <path id="Trazado_7624" data-name="Trazado 7624" d="M1191.287,449.847l-52.428,89.614h-27.738l54.256-90.529h-57.76V427.9h83.67Z" transform="translate(-1015.262 -427.901)" fill="none" stroke="#006afd" stroke-width="1"/>
        </g>
        <g id="Grupo_19051" data-name="Grupo 19051">
          <path id="Trazado_7625" data-name="Trazado 7625" d="M808.6,539.462V427.9h24.113V539.462Z" transform="translate(-674.955 -427.901)" fill="none" stroke="#006afd" stroke-width="1"/>
          <path id="Trazado_7626" data-name="Trazado 7626" d="M554.271,539.462H528.527L577.576,427.9h24.276L647.19,539.462h-25.6L588.22,462.688Z" transform="translate(-528.527 -427.901)" fill="none" stroke="#006afd" stroke-width="1"/>
        </g>
      </g>
    </g>
  </g>
</svg>
